<?xml version="1.0" encoding="utf-8"?>
<!-- Generator: Adobe Illustrator 12.0.0, SVG Export Plug-In . SVG Version: 6.00 Build 51448)  -->
<!DOCTYPE svg PUBLIC "-//W3C//DTD SVG 1.1//EN" "http://www.w3.org/Graphics/SVG/1.1/DTD/svg11.dtd" [
	<!ENTITY ns_svg "http://www.w3.org/2000/svg">
	<!ENTITY ns_xlink "http://www.w3.org/1999/xlink">
]>
<svg  version="1.1" id="Ebene_1" xmlns="&ns_svg;" xmlns:xlink="&ns_xlink;" width="319.345" height="217.081"
	 viewBox="0 0 319.345 217.081" overflow="visible" enable-background="new 0 0 319.345 217.081" xml:space="preserve">
<g>
	<path fill-rule="evenodd" clip-rule="evenodd" fill="#DBC33F" d="M147.604,1.262c0.413-0.398,2.466-0.398,2.88,0
		c-0.641,0-1.28,0-1.92,0C148.244,1.262,147.923,1.262,147.604,1.262z"/>
	<path fill-rule="evenodd" clip-rule="evenodd" fill="#575195" d="M148.564,1.262c0.64,0,1.279,0,1.92,0
		c0.349,0.131,1.24-0.28,1.199,0.24C150.717,1.348,149.131,1.814,148.564,1.262z"/>
	<path fill-rule="evenodd" clip-rule="evenodd" fill="#575195" d="M206.404,27.902c-3.03-3.117-9.227-1.171-13.681-1.92
		c-2.419-0.407-2.998-2.65-4.8-3.12c4.872-2.635-1.472-6.369-6.24-5.28c-4.703-3.376-9.604-6.555-13.92-10.32
		c5.15-2.625,16.459-5.73,21.601-1.44c1.536,1.282,3.041,3.337,4.8,5.04C198.692,15.248,204.108,21.866,206.404,27.902z"/>
	<path fill-rule="evenodd" clip-rule="evenodd" fill="#575195" d="M177.364,19.742c-2.525,2.482-5.769,7.656-3.84,12.24
		c3.236,0.304,2.977-2.86,3.84-4.8c0.932-2.096,2.17-3.483,3.84-4.56c2.141,1.536,4.658,3.212,7.68,6
		c1.606,1.483,5.122,6.769,6.721,6.72c3.148-0.097,0.754-3.725,0.239-5.52c6.333-0.457,12.731,2.564,18.24,5.28
		c4.387,2.163,8.331,4.491,11.521,7.68c6.127,6.127,11.188,14.554,16.319,22.08c4.878,7.154,10.169,14.996,16.8,21.6
		c6.389,6.362,13.084,14.131,24.48,13.92c9.82-0.182,13.616-7.942,16.08-16.08c3.622-0.458,5.603-2.557,6.72-5.52
		c-2.351-2.785-4.373,0.907-6.96,1.2c-8.182,0.928-10.774-13.169-4.8-16.8c2.74-1.665,9.649-1.886,12.96,0.24
		c6.347,4.075,9.119,13.763,8.399,24.48c-1.047,15.615-8.069,27.491-18.239,36c-9.313,7.793-23.986,14.608-38.641,15.36
		c-8.723,0.447-18.521,0.007-25.68-2.4c-2.471-0.83-4.763-2.436-6.96-3.6c-2.209-1.17-3.882-2.253-6.479-4.08
		c-0.189-2.804,1.622-6.892-0.48-8.64c-4.328-0.488-2.899,4.78-3.84,7.68c-2.353,0.737-8.275,0.926-6.48,3.84
		c1.106,1.797,5.385-0.396,7.92-0.24c3.903,2.897,7.792,5.809,12.721,7.681c-3.371,4.952-9.521,9.197-13.2,14.64
		c-3.981-1.822-6.405-7.613-11.76-6.479c-0.46,2.576,2.236,3.998,3.84,5.279c5.102,4.077,10.198,8.648,14.399,13.681
		c-1.904,1.535-3.734,3.145-5.04,5.279c-2.601-1.269-6.499-2.359-9.359-1.439c-6.916,2.224-4.847,13.855-1.92,18.96
		c-8.546,3.135-16.059,7.302-22.8,12.24c-4.654-8.936-10.752-17.427-17.28-24.96c-1.532-1.769-3.786-4.813-6.72-3.601
		c-0.978,2.733,3.197,3.238,2.64,5.521c-2.07,0.375-5.37,0.375-7.44,0c-2.673-10.048-7.666-18.377-14.16-25.2
		c-1.722-1.81-3.568-4.833-6.72-4.561c-1.591,3.875,2.732,5.658,4.561,7.681c2.093,3.506,5.006,6.193,6.72,10.08
		c-3.698,0.142-4.879,2.801-6.72,4.8c-3.159-2.176-7.08-3.813-10.801-2.4c-6.292,2.392-5.741,12.704-3.359,18.96
		c-8.851,2.029-16.33,5.43-23.76,8.88c-2.01-8.122-6.171-17.224-9.36-24.72c-1.511-3.551-3.404-9.753-8.4-7.2
		c-0.06,3.114,4.391,3.758,4.56,7.44c-8.807-2.36-13.181-9.614-17.04-18c-2.38-5.172-5.414-11.322-6-16.561
		c-0.482-4.308,0.331-9.24,0.72-13.68c0.736-8.405,2.226-16.495,4.08-24.24c0.956-3.992,1.634-8.13,2.88-11.28
		c1.093-2.762,3.299-5.553,5.04-8.16c3.581-5.362,7.442-9.967,11.76-14.64c2.064-2.234,3.704-5.344,6.48-6.24
		c-0.098,7.398,2.606,14.156,4.56,20.4c1.902,6.079,4.899,12.323,8.64,16.56c4.836,5.477,11.45,7.783,19.2,10.08
		c10.549,3.126,20.023,4.977,31.921,3.84c9.95-0.951,14.844-4.536,19.68-11.04c3.249-4.37,6.81-8.743,9.84-13.2
		c1.062-1.561,1.652-3.066,2.64-4.8c0.866-1.52,2.459-2.947,3.12-4.32c1.232-2.558,2.658-6.024,1.44-8.88
		c-3.379,0.542-3.998,3.843-4.8,6.96c-4.585,8.031-9.54,14.863-15.601,21.6c-1.941,2.158-3.652,4.954-5.76,6.48
		c-4.409,3.194-12.937,4.265-20.4,3.84c-13.452-0.765-29.836-4.886-37.439-12.24c-3.685-3.563-7.887-11.251-9.84-17.04
		c-2.775-8.222-3.938-16.897-4.56-27.84c-0.165-2.901-0.087-6.283,0.24-9.36c0.303-2.845,0.468-6.238,1.2-8.16
		c1.157-3.041,5.745-6.999,8.88-9.6c6.826-5.665,14.961-9.61,23.76-12.96c5.952-2.266,11.571-5.718,19.68-4.56
		c1.735,0.248,3.76,1.145,5.521,1.68C165.456,9.533,170.76,15.415,177.364,19.742z M222.963,83.342
		c4.403,1.518,10.046,1.169,12.72-2.64c1.815-2.585,2.106-6.395,1.681-10.32c-0.772-7.114-5.967-15.516-11.28-17.04
		c-1.594-0.458-4.65-0.119-5.28,0C206.267,56.085,213.103,79.943,222.963,83.342z"/>
	<path fill-rule="evenodd" clip-rule="evenodd" fill="#575195" d="M94.324,40.622c0.146-0.574-0.301-1.741,0.24-1.92
		c0,3.84,0,7.68,0,11.52c-0.554-0.726-0.084-2.475-0.24-3.6C94.324,44.622,94.324,42.622,94.324,40.622z"/>
	<path fill-rule="evenodd" clip-rule="evenodd" fill="#DBC33F" d="M94.324,40.622c0,2,0,4,0,6
		C93.924,45.178,93.924,42.066,94.324,40.622z"/>
	<path fill-rule="evenodd" clip-rule="evenodd" fill="#575195" d="M287.284,68.942c0.02-0.38-0.115-0.916,0.24-0.96
		c0,1.6,0,3.2,0,4.8c-0.326-0.074-0.199-0.601-0.24-0.96C287.284,70.862,287.284,69.902,287.284,68.942z"/>
	<path fill-rule="evenodd" clip-rule="evenodd" fill="#DBC33F" d="M287.284,68.942c0,0.96,0,1.92,0,2.88
		C286.885,71.408,286.885,69.356,287.284,68.942z"/>
	<path fill-rule="evenodd" clip-rule="evenodd" fill="#575195" d="M226.083,79.982c0.96,0,1.92,0,2.88,0
		C228.549,80.38,226.498,80.38,226.083,79.982z"/>
	<path fill-rule="evenodd" clip-rule="evenodd" fill="#575195" d="M44.884,111.663c1.44,0,2.88,0,4.32,0
		C48.317,112.061,45.771,112.061,44.884,111.663z"/>
	<path fill-rule="evenodd" clip-rule="evenodd" fill="#575195" d="M46.563,115.502c-0.808-0.152-2.229,0.309-2.64-0.24
		c2.64,0,5.28,0,7.92,0c-0.489,0.551-1.993,0.087-2.88,0.24C48.164,115.502,47.364,115.502,46.563,115.502z"/>
	<path fill-rule="evenodd" clip-rule="evenodd" fill="#DBC33F" d="M46.563,115.502c0.8,0,1.6,0,2.4,0
		C48.705,115.9,46.822,115.9,46.563,115.502z"/>
	<path fill-rule="evenodd" clip-rule="evenodd" fill="#575195" d="M61.204,131.583c0.153-0.887-0.311-2.391,0.24-2.88
		C61.291,129.589,61.754,131.093,61.204,131.583z"/>
	<path fill-rule="evenodd" clip-rule="evenodd" fill="#575195" d="M32.404,136.142c-0.4-1.523-0.4-4.717,0-6.24
		C32.404,131.982,32.404,134.062,32.404,136.142z"/>
	<path fill-rule="evenodd" clip-rule="evenodd" fill="#575195" d="M35.284,130.862c0,0.801,0,1.601,0,2.4
		C34.886,133.003,34.886,131.121,35.284,130.862z"/>
	<path fill-rule="evenodd" clip-rule="evenodd" fill="#575195" d="M50.164,131.583c0,1.6,0,3.2,0,4.8
		C49.765,135.336,49.765,132.628,50.164,131.583z"/>
	<path fill-rule="evenodd" clip-rule="evenodd" fill="#DBC33F" d="M47.284,132.062c-0.152,0.809,0.309,2.229-0.24,2.641
		C47.196,133.894,46.734,132.473,47.284,132.062z"/>
	<path fill-rule="evenodd" clip-rule="evenodd" fill="#575195" d="M61.204,140.703c-0.399-1.923-0.399-5.518,0-7.44
		C61.204,135.743,61.204,138.222,61.204,140.703z"/>
	<path fill-rule="evenodd" clip-rule="evenodd" fill="#575195" d="M35.284,133.502c0.549,0.41,0.088,1.832,0.24,2.64
		C34.975,135.732,35.436,134.31,35.284,133.502z"/>
	<path fill-rule="evenodd" clip-rule="evenodd" fill="#575195" d="M235.444,141.663c0.336-0.398,2.304-0.398,2.64,0
		C237.204,141.663,236.324,141.663,235.444,141.663z"/>
	<path fill-rule="evenodd" clip-rule="evenodd" fill="#575195" d="M251.524,143.102c-0.888-0.153-2.392,0.311-2.881-0.24
		c0.967,0.154,2.553-0.312,3.12,0.24C251.683,143.102,251.604,143.102,251.524,143.102z"/>
	<path fill-rule="evenodd" clip-rule="evenodd" fill="#575195" d="M254.164,143.102c0.726-0.554,2.476-0.084,3.6-0.24
		c-0.567,0.553-2.153,0.086-3.12,0.24C254.484,143.102,254.324,143.102,254.164,143.102z"/>
	<path fill-rule="evenodd" clip-rule="evenodd" fill="#DBC33F" d="M251.524,143.102c0.08,0,0.159,0,0.239,0c0.8,0,1.601,0,2.4,0
		c0.16,0,0.32,0,0.479,0C254.151,143.5,252.016,143.5,251.524,143.102z"/>
	<path fill-rule="evenodd" clip-rule="evenodd" fill="#DBC33F" d="M229.204,185.583c-0.96,0-1.92,0-2.88,0
		c-0.208-3.972-5.781-7.163-4.8-12.24c0.261-1.354,2.005-3.454,3.6-3.12c1.426,0.299,4.306,6.2,5.04,7.44
		c1.736,2.932,3.319,5.285,4.08,7.68c-0.825-0.105-1.346,0.095-1.92,0.24C231.284,185.583,230.244,185.583,229.204,185.583z"/>
	<path fill-rule="evenodd" clip-rule="evenodd" fill="#DBC33F" d="M148.564,186.062c-1.7,0.18-2.772-0.268-4.08-0.479
		c0.416-4.491-4.859-9.09-2.4-13.2c1.013-1.692,4.263-2.313,6-0.96c2.709,2.109,3.814,10.994,5.28,14.88c-0.4,0-0.8,0-1.2,0
		C151.437,185.749,149.688,186.217,148.564,186.062z"/>
	<path fill-rule="evenodd" clip-rule="evenodd" fill="#DBC33F" d="M132.963,186.062c-1.936-0.096-3.379,0.301-4.8,0.72
		c-2.166-4.08-3.467-13.315,2.16-14.159c7.457-1.119,9.713,7.447,10.319,13.199c-0.399,0-0.8,0-1.199,0
		C137.362,185.981,134.646,185.504,132.963,186.062z"/>
	<path fill-rule="evenodd" clip-rule="evenodd" fill="#DBC33F" d="M222.244,186.062c-4.563,0.077-7.55,1.73-12.24,1.68
		c-2.453-3.25-4.643-14.194,1.44-13.92C217.042,174.075,220.918,180.913,222.244,186.062z"/>
	<path fill-rule="evenodd" clip-rule="evenodd" fill="#575195" d="M101.764,204.782c-0.257,2.224-1.307,3.654-1.92,5.521
		c-8.54-3.06-15.78-7.421-21.36-13.44c2.437-6.843,6.097-12.463,7.68-20.159c1.588,0.411,2.67,1.329,4.08,1.92
		c0.889,3.598,2.733,7.338,4.32,12C96.489,196.277,95.917,203.299,101.764,204.782z"/>
	<path fill-rule="evenodd" clip-rule="evenodd" fill="#575195" d="M176.643,197.102c-2.554,2.886-3.84,7.04-5.039,11.28
		c-6.845-1.876-12.654-4.786-17.521-8.641c-0.307-2.307,0.807-3.192,0.72-5.279c3.892-1.579,3.501-8.358,1.44-11.76
		c2.089-0.889,6.45-0.044,9.12-0.96C169.419,186.567,173.737,191.129,176.643,197.102z"/>
	<path fill-rule="evenodd" clip-rule="evenodd" fill="#575195" d="M229.204,185.583c1.04,0,2.08,0,3.12,0
		C231.832,185.98,229.696,185.98,229.204,185.583z"/>
	<path fill-rule="evenodd" clip-rule="evenodd" fill="#575195" d="M132.963,186.062c1.683-0.558,4.398-0.081,6.48-0.24
		C137.761,186.38,135.045,185.904,132.963,186.062z"/>
	<path fill-rule="evenodd" clip-rule="evenodd" fill="#575195" d="M148.564,186.062c1.124,0.155,2.873-0.313,3.6,0.24
		C151.039,186.147,149.29,186.616,148.564,186.062z"/>
	<path fill-rule="evenodd" clip-rule="evenodd" fill="#575195" d="M236.404,189.663c-2.409,5.771-9.097,10.18-16.08,12.72
		c-10.039,3.651-22.059,6.788-33.84,3.359c4.03-6.085,12.369-9.401,20.399-12.479c6.421-2.461,13.972-3.862,21.12-4.32
		C230.639,188.773,234.098,188.684,236.404,189.663z"/>
	<path fill-rule="evenodd" clip-rule="evenodd" fill="#575195" d="M153.124,190.623c-9.916,9.687-31.385,14.143-49.92,10.319
		c4.289-4.481,12.283-6.712,19.68-8.88C130.466,189.84,143.43,187.743,153.124,190.623z"/>
	<path fill-rule="evenodd" clip-rule="evenodd" fill="#DBC33F" d="M190.564,211.022c-0.05,0.751,0.161,1.762-0.24,2.16
		c-4.67,0.184-10.81-1.23-14.88-3.12c0.046-3.088,0.772-7.537,3.6-8.64c1.852,3.823,2.802,8.005,7.44,8.88
		C187.745,210.541,189.586,209.814,190.564,211.022z"/>
	<path fill-rule="evenodd" clip-rule="evenodd" fill="#DBC33F" d="M120.244,213.182c-0.16,0-0.32,0-0.48,0
		c-0.898-2.2,1.187-5.517,1.92-7.68c3.191,0.458,6.013-0.424,9.12-0.721c-0.068,2.272-0.493,6.211-1.68,8.16
		c-1.972-0.132-3.256,0.424-5.28,0.24C122.644,213.182,121.443,213.182,120.244,213.182z"/>
	<path fill-rule="evenodd" clip-rule="evenodd" fill="#DBC33F" d="M117.124,205.742c-0.266,2.935-0.922,5.478-2.16,7.44
		c-3.951-0.369-7.502-1.138-11.28-1.68c0.118-2.522,1.566-3.714,2.16-5.761C109.675,205.282,113.06,205.825,117.124,205.742z"/>
	<path fill-rule="evenodd" clip-rule="evenodd" fill="#DBC33F" d="M198.963,210.782c1.783,0.104,2.97-0.39,4.561-0.479
		c0.536,3.176-2.42,2.86-5.04,2.88c-0.809,0.152-2.229-0.31-2.641,0.24c-0.592,0.031-1.156,0.036-1.439-0.24
		c-0.563-0.633-0.04-1.637,0-2.4c0.56,0,1.12,0,1.68,0C196.498,211.18,198.549,211.18,198.963,210.782z"/>
	<path fill-rule="evenodd" clip-rule="evenodd" fill="#575195" d="M196.083,210.782c0.96,0,1.92,0,2.88,0
		C198.549,211.18,196.498,211.18,196.083,210.782z"/>
	<path fill-rule="evenodd" clip-rule="evenodd" fill="#575195" d="M207.124,210.782c-0.152,0.809,0.31,2.229-0.24,2.641
		C207.036,212.614,206.575,211.193,207.124,210.782z"/>
	<path fill-rule="evenodd" clip-rule="evenodd" fill="#575195" d="M120.244,213.182c1.2,0,2.4,0,3.6,0
		C123.194,213.581,120.893,213.581,120.244,213.182z"/>
	<path fill-rule="evenodd" clip-rule="evenodd" fill="#575195" d="M195.843,213.422c0.411-0.55,1.832-0.088,2.641-0.24
		C198.073,213.731,196.652,213.27,195.843,213.422z"/>
	<path fill-rule="evenodd" clip-rule="evenodd" fill="#575195" d="M117.844,216.782c-0.336,0.398-2.304,0.398-2.64,0
		C116.083,216.782,116.963,216.782,117.844,216.782z"/>
	<path fill-rule="evenodd" clip-rule="evenodd" fill="#575195" d="M124.083,216.782c-0.492,0.398-2.628,0.398-3.12,0
		C122.003,216.782,123.043,216.782,124.083,216.782z"/>
	<path fill-rule="evenodd" clip-rule="evenodd" fill="#575195" d="M198.723,217.022c-2.081-0.158-4.798,0.318-6.479-0.24
		C194.325,216.941,197.042,216.464,198.723,217.022z"/>
	<path fill-rule="evenodd" clip-rule="evenodd" fill="#575195" d="M161.284,4.622c0.962,0.311,2.085,0.776,2.88,0
		C163.753,5.727,161.853,5.316,161.284,4.622z"/>
	<path fill-rule="evenodd" clip-rule="evenodd" fill="#575195" d="M98.884,26.462c1.419-1.62,2.939-3.14,4.56-4.56
		C102.024,23.522,100.504,25.042,98.884,26.462z"/>
	<path fill-rule="evenodd" clip-rule="evenodd" fill="#DBC33F" d="M88.804,59.342c0.859-1.061,1.819-2.021,2.88-2.88
		C90.824,57.522,89.864,58.482,88.804,59.342z"/>
	<path fill-rule="evenodd" clip-rule="evenodd" fill="#575195" d="M20.164,98.942c1.54,1.34,2.98,2.78,4.32,4.32
		C22.943,101.922,21.503,100.482,20.164,98.942z"/>
	<path fill-rule="evenodd" clip-rule="evenodd" fill="#575195" d="M1.924,90.542c-0.4,0-0.8,0-1.2,0
		c-0.155-0.424-1.184-1.191-0.48-1.68c-0.115,0.755,0.342,0.938,0.48,1.44C1.072,90.434,1.964,90.022,1.924,90.542z"/>
	<path fill-rule="evenodd" clip-rule="evenodd" fill="#575195" d="M79.204,202.623c-1.374-1.347-3.038-2.402-4.32-3.841
		C76.399,199.986,78.027,201.08,79.204,202.623z"/>
	<path fill-rule="evenodd" clip-rule="evenodd" fill="#575195" d="M148.803,198.302c0.071-0.67,2.547-1.492,1.681-0.24
		C150.388,196.939,149.295,198.294,148.803,198.302z"/>
	<path fill-rule="evenodd" clip-rule="evenodd" fill="#575195" d="M153.124,204.062c-1.154-0.686-2.078-1.602-2.88-2.64
		C151.221,202.285,152.214,203.131,153.124,204.062z"/>
	<path fill-rule="evenodd" clip-rule="evenodd" fill="#DBC33F" d="M222.484,160.623c-1.061-0.86-2.021-1.82-2.88-2.88
		C220.664,158.602,221.624,159.562,222.484,160.623z"/>
	<path fill-rule="evenodd" clip-rule="evenodd" fill="#575195" d="M282.484,137.102c0.72-0.72,1.854-1.025,2.88-1.439
		C284.539,136.278,283.578,136.756,282.484,137.102z"/>
	<path fill-rule="evenodd" clip-rule="evenodd" fill="#DBC33F" d="M302.404,124.142c1.02-1.22,2.14-2.34,3.359-3.359
		C304.744,122.002,303.624,123.123,302.404,124.142z"/>
	<path fill-rule="evenodd" clip-rule="evenodd" fill="#DBC33F" d="M313.444,63.902c-0.98-0.78-1.86-1.66-2.641-2.64
		C311.784,62.042,312.664,62.922,313.444,63.902z"/>
	<path fill-rule="evenodd" clip-rule="evenodd" fill="#575195" d="M260.164,82.622c2.1,1.9,4.1,3.9,6,6
		C264.063,86.722,262.063,84.722,260.164,82.622z"/>
	<path fill-rule="evenodd" clip-rule="evenodd" fill="#575195" d="M228.003,40.622c1.13,0.95,2.26,1.901,2.88,3.36
		C230.009,42.777,228.96,41.745,228.003,40.622z"/>
	<path fill-rule="evenodd" clip-rule="evenodd" fill="#575195" d="M223.444,36.542c1.327,1.072,2.838,1.961,3.84,3.36
		C226.083,38.703,224.534,37.852,223.444,36.542z"/>
	<path fill-rule="evenodd" clip-rule="evenodd" fill="#575195" d="M198.244,9.182c1.141,0.94,2.181,1.98,3.12,3.12
		C200.223,11.363,199.183,10.323,198.244,9.182z"/>
	<path fill-rule="evenodd" clip-rule="evenodd" fill="#575195" d="M195.843,6.542c0.9,0.699,1.701,1.5,2.4,2.4
		C197.343,8.243,196.543,7.443,195.843,6.542z"/>
	<path fill-rule="evenodd" clip-rule="evenodd" fill="#575195" d="M318.963,88.622c-0.012,1.269-0.107,2.453-0.479,3.36
		C318.496,90.714,318.59,89.529,318.963,88.622z"/>
	<path fill-rule="evenodd" clip-rule="evenodd" fill="#575195" d="M318.003,95.342c-0.014,1.106-0.111,2.129-0.479,2.88
		C317.538,97.116,317.634,96.093,318.003,95.342z"/>
	<path fill-rule="evenodd" clip-rule="evenodd" fill="#575195" d="M262.083,142.623c0.708-0.412,1.731-0.509,2.88-0.48
		C264.212,142.511,263.106,142.524,262.083,142.623z"/>
	<path fill-rule="evenodd" clip-rule="evenodd" fill="#575195" d="M189.843,216.782c-1.146-0.214-2.649-0.069-3.6-0.479
		C187.626,216.279,188.998,216.268,189.843,216.782z"/>
	<path fill-rule="evenodd" clip-rule="evenodd" fill="#575195" d="M182.643,215.822c-0.907-0.212-2.061-0.179-2.64-0.72
		C180.911,215.315,182.064,215.282,182.643,215.822z"/>
	<path fill-rule="evenodd" clip-rule="evenodd" fill="#575195" d="M133.683,210.782c-0.122,0.839-0.107,1.813-0.479,2.4
		C133.17,212.189,133.27,211.329,133.683,210.782z"/>
	<path fill-rule="evenodd" clip-rule="evenodd" fill="#575195" d="M126.484,216.782c0.823-0.616,2.976,0.097,3.84-0.479
		C129.753,217.172,127.774,216.632,126.484,216.782z"/>
	<path fill-rule="evenodd" clip-rule="evenodd" fill="#575195" d="M81.844,174.302c1.26,0.191,0.387,2.432,0.24,3.36
		C81.802,176.209,82.75,174.989,81.844,174.302z"/>
	<path fill-rule="evenodd" clip-rule="evenodd" fill="#575195" d="M57.364,114.783c0.65-0.39,1.771-0.31,2.64-0.48
		C59.418,114.756,58.439,114.818,57.364,114.783z"/>
	<path fill-rule="evenodd" clip-rule="evenodd" fill="#575195" d="M0.244,88.622c0.283-1.002,2.182-1.649,3.36-0.96
		C1.967,87.466,0.918,87.857,0.244,88.622z"/>
	<path fill-rule="evenodd" clip-rule="evenodd" fill="#575195" d="M8.884,83.822c0.627,0.493,0.363,1.877,0.72,2.64
		C8.923,86.023,9.166,84.66,8.884,83.822z"/>
	<path fill-rule="evenodd" clip-rule="evenodd" fill="#575195" d="M12.003,79.742c0.414,0.546,0.514,1.407,0.48,2.4
		C12.112,81.554,12.125,80.58,12.003,79.742z"/>
	<path fill-rule="evenodd" clip-rule="evenodd" fill="#575195" d="M49.924,111.663c0.711-0.409,1.976-0.265,2.88-0.48
		C52.18,111.678,51.073,111.691,49.924,111.663z"/>
	<path fill-rule="evenodd" clip-rule="evenodd" fill="#575195" d="M174.963,0.782c0.586-0.454,1.564-0.515,2.641-0.48
		C176.953,0.691,175.833,0.611,174.963,0.782z"/>
	<path fill-rule="evenodd" clip-rule="evenodd" fill="#575195" d="M98.884,7.262c0.677-0.608,2.077-1.755,3.12-1.2
		C100.538,6.037,99.965,6.903,98.884,7.262z"/>
	<path fill-rule="evenodd" clip-rule="evenodd" fill="#DBC33F" d="M92.164,16.622c0.78-0.98,1.66-1.86,2.64-2.64
		C94.024,14.963,93.144,15.843,92.164,16.622z"/>
	<path fill-rule="evenodd" clip-rule="evenodd" fill="#242327" d="M220.803,53.342c0.63-0.119,3.687-0.458,5.28,0
		c5.313,1.524,10.508,9.926,11.28,17.04c0.426,3.925,0.135,7.734-1.681,10.32c-2.674,3.809-8.316,4.158-12.72,2.64
		C213.103,79.943,206.267,56.085,220.803,53.342z M228.963,79.982c9.221-1.867,2.814-19.423-2.399-22.08
		c-5.145-2.622-10.708,1.327-10.08,6.96c7.525-4.406,10.4,9.447,3.12,10.08c1.011,2.829,3.112,4.567,6.479,5.04
		C226.498,80.38,228.549,80.38,228.963,79.982z"/>
	<path fill-rule="evenodd" clip-rule="evenodd" fill="#242327" d="M32.404,129.902c-0.18-2.266,0.516-4.369,2.88-3.359
		c0.615,1.186,0.025,2.998,0,4.319c-0.397,0.259-0.397,2.142,0,2.4c0,0.08,0,0.16,0,0.24c0.152,0.808-0.309,2.229,0.24,2.64
		c0.446,4.755,3.245,7.155,4.56,11.04c-5.196,0.925-6.885-6.093-7.68-11.04C32.404,134.062,32.404,131.982,32.404,129.902z"/>
	<path fill-rule="evenodd" clip-rule="evenodd" fill="#242327" d="M47.284,132.062c0.16-1.6,0.064-3.456,0.96-4.319
		c2.557-0.252,2.584,1.95,1.92,3.84c-0.399,1.046-0.399,3.754,0,4.8c0,0.08,0,0.16,0,0.24c-0.018,1.218-0.057,2.457,0.48,3.12
		c0.315,3.535,2.429,6.517,2.64,9.359c-5.459-0.164-5.34-8.804-6.24-14.399C47.593,134.292,47.132,132.871,47.284,132.062z"/>
	<path fill-rule="evenodd" clip-rule="evenodd" fill="#575195" d="M50.164,136.623c0.428,0.771,0.223,2.177,0.48,3.12
		C50.106,139.08,50.146,137.84,50.164,136.623z"/>
	<path fill-rule="evenodd" clip-rule="evenodd" fill="#242327" d="M102.003,6.063c0.279-0.039,0.427,0.053,0.48,0.24
		c0.9,2.373-1.797,3.371-3.12,4.32c-1.623,1.164-3.267,2.236-4.56,3.36c-0.98,0.779-1.86,1.66-2.64,2.64
		c-2.656,3.264-3.688,8.153-5.52,12.24c-3.987-0.354-1.237-5.881,0-8.64c2.496-5.568,7.443-10.726,12.24-12.96
		C99.965,6.903,100.538,6.037,102.003,6.063z"/>
	<path fill-rule="evenodd" clip-rule="evenodd" fill="#242327" d="M177.604,0.302c8.603-1.399,14.181,2.296,18.239,6.24
		c0.7,0.9,1.5,1.7,2.4,2.4c0,0.08,0,0.16,0,0.24c0.939,1.141,1.979,2.181,3.12,3.12c4.483,5.356,7.94,11.739,11.52,18
		c3.754,1.847,7.368,3.832,10.561,6.24c1.09,1.31,2.64,2.16,3.84,3.36c0.346,0.134,0.586,0.375,0.72,0.72
		c0.957,1.123,2.006,2.155,2.88,3.36c10.845,11.796,18.431,26.849,29.28,38.64c1.899,2.1,3.899,4.1,6,6
		c4.116,4.25,14.269,10.573,21.84,6.24c1.613-0.923,2.83-2.454,4.08-4.56c0.85-1.433,2.932-3.993,2.64-6
		c-0.27-1.855-3.624-3.033-4.8-4.56c-1.695-2.2-1.923-3.815-2.399-6.96c0-1.6,0-3.2,0-4.8c0.164-11.173,16.627-13.457,23.279-6.72
		c0.78,0.98,1.66,1.86,2.641,2.64c4.698,5.339,6.834,14.846,5.52,24.72c-0.373,0.907-0.468,2.092-0.479,3.36
		c-0.036,1.244-0.175,2.385-0.48,3.36c-0.369,0.751-0.466,1.774-0.479,2.88c-1.49,9.95-6.401,16.479-11.761,22.561
		c-1.22,1.02-2.34,2.14-3.359,3.359c-5.067,4.453-10.544,8.496-17.04,11.521c-1.026,0.414-2.16,0.72-2.88,1.439
		c-5.249,2.271-10.79,4.25-17.521,5.04c-1.148-0.028-2.172,0.068-2.88,0.48c-1.396,0.123-2.686,0.354-4.32,0.239
		c-1.124,0.156-2.874-0.313-3.6,0.24c-0.8,0-1.601,0-2.4,0c-0.567-0.552-2.153-0.086-3.12-0.24
		c-3.079,0.104-7.522-0.466-10.56-1.199c-0.336-0.398-2.304-0.398-2.64,0c-4.7,1.589-9.192,6.324-12.721,10.319
		c-1.23,1.395-4.886,4.592-3.119,5.761c0.859,1.06,1.819,2.02,2.88,2.88c5.451,5.947,9.729,12.818,14.159,20.64
		c1.236,2.182,3.852,5.467,4.08,7.44c0.278,2.399-1.857,5.795-3.359,7.439c-6.69,7.327-19.078,10.611-30,13.68
		c0.03,0.431-0.294,0.507-0.24,0.96c-0.549,0.411-0.088,1.832-0.24,2.641c-0.043,3.877-5.205,2.634-8.16,3.6
		c-1.682-0.558-4.398-0.081-6.479-0.24c-0.8,0-1.601,0-2.4,0c-0.846-0.514-2.217-0.503-3.6-0.479
		c-1.322-0.038-2.388-0.333-3.601-0.48c-0.579-0.54-1.732-0.507-2.64-0.72c-10.514-2.126-18.646-6.635-26.88-11.04
		c-0.909-0.931-1.902-1.777-2.88-2.64c-0.626-0.989-0.01-2.48,0.24-3.36c0.866-1.252-1.609-0.43-1.681,0.24
		c-4.242,1.917-8.41,3.909-13.439,5.04c-0.758,2.282-0.954,5.126-1.681,7.439c-0.413,0.547-0.513,1.407-0.479,2.4
		c-0.116,1.884-1.133,2.867-2.88,3.12c-0.864,0.576-3.017-0.137-3.84,0.479c-0.8,0-1.6,0-2.4,0c-1.04,0-2.08,0-3.12,0
		s-2.08,0-3.12,0c-0.88,0-1.76,0-2.64,0c-15.64-1.08-27.205-6.235-36-14.159c-1.177-1.543-2.804-2.637-4.32-3.841
		c-1.814-2.5,1.115-5.5,2.16-7.92c1.806-4.184,3.805-9.176,5.04-13.199c0.147-0.929,1.021-3.169-0.24-3.36
		c-11.871-6.209-15.975-20.186-20.64-33.6c0-2.48,0-4.96,0-7.44c0-0.56,0-1.12,0-1.68c0.551-0.489,0.087-1.993,0.24-2.88
		c0.083-5.197,0.672-9.888,1.44-14.4c-0.721-0.546-2.06-0.104-2.88,0c-0.869,0.171-1.989,0.091-2.64,0.48
		c-1.706,0.294-3.532,0.468-5.52,0.479c-2.64,0-5.28,0-7.92,0c-10.328-1.653-19.174-5.685-25.2-11.76
		c-1.251-1.262-2.679-3.237-3.84-5.04c-1.033-1.604-1.98-4.07-3.6-5.28c-2.392-1.786-6.285-1.914-9.36-2.64
		c0.04-0.521-0.852-0.109-1.2-0.24c-0.138-0.502-0.595-0.685-0.48-1.44c0-0.08,0-0.16,0-0.24c0.675-0.765,1.724-1.156,3.36-0.96
		c2.716-0.076,4.438,0.842,6.48,1.44c0.077-1.117-0.479-1.602-0.48-2.64c-0.357-0.763-0.093-2.147-0.72-2.64
		c-1.654-3.039,1.117-7.811,3.12-4.08c0.122,0.838,0.108,1.812,0.48,2.4c0.094,1.826,1.076,2.764,0.96,4.8
		c1.885-2.637,3.149-10.055,7.68-6.96c0.573,2.032-1.986,2.979-2.88,4.8c-2.587,5.272-1.549,10.444,1.92,14.16
		c1.34,1.54,2.78,2.98,4.32,4.32c5.608,3.992,11.425,7.775,20.4,8.4c0.887,0.398,3.433,0.398,4.32,0c0.24,0,0.48,0,0.72,0
		c1.149,0.028,2.256,0.016,2.88-0.48c5.125-0.875,8.846-3.154,11.76-6.24c2.178-21.102,13.252-33.307,24.24-45.6
		c1.06-0.86,2.02-1.82,2.88-2.88c0.752-1.248,2.251-1.749,3.12-2.88c-0.369-0.831-0.212-2.188-0.24-3.36c0-3.84,0-7.68,0-11.52
		c0.208-5.312,2.031-9.008,4.32-12.24c1.62-1.42,3.14-2.94,4.56-4.56c11.553-10.047,25.656-17.544,44.161-20.64
		c0.319,0,0.64,0,0.96,0c0.567,0.552,2.153,0.086,3.119,0.24c3.488,0.752,6.356,2.124,9.601,3.12c0.569,0.694,2.47,1.104,2.88,0
		c3.31-1.57,6.584-3.176,10.8-3.84C175.833,0.611,176.953,0.691,177.604,0.302z M194.164,10.862c-1.759-1.703-3.264-3.758-4.8-5.04
		c-5.142-4.29-16.45-1.185-21.601,1.44c4.315,3.766,9.217,6.944,13.92,10.32c4.769-1.089,11.112,2.645,6.24,5.28
		c1.802,0.47,2.381,2.713,4.8,3.12c4.454,0.749,10.65-1.197,13.681,1.92C204.108,21.866,198.692,15.248,194.164,10.862z
		 M157.204,7.022c-1.761-0.536-3.785-1.432-5.521-1.68c-8.108-1.158-13.728,2.294-19.68,4.56c-8.799,3.35-16.934,7.295-23.76,12.96
		c-3.135,2.602-7.723,6.56-8.88,9.6c-0.732,1.922-0.897,5.314-1.2,8.16c-0.328,3.078-0.405,6.459-0.24,9.36
		c0.623,10.943,1.785,19.618,4.56,27.84c1.954,5.789,6.156,13.477,9.84,17.04c7.604,7.354,23.987,11.475,37.439,12.24
		c7.464,0.425,15.991-0.646,20.4-3.84c2.107-1.526,3.818-4.322,5.76-6.48c6.061-6.737,11.016-13.569,15.601-21.6
		c0.802-3.117,1.421-6.418,4.8-6.96c1.218,2.856-0.208,6.322-1.44,8.88c-0.661,1.373-2.254,2.801-3.12,4.32
		c-0.987,1.733-1.578,3.239-2.64,4.8c-3.03,4.457-6.591,8.83-9.84,13.2c-4.836,6.504-9.729,10.089-19.68,11.04
		c-11.897,1.137-21.372-0.714-31.921-3.84c-7.75-2.297-14.364-4.604-19.2-10.08c-3.741-4.237-6.738-10.481-8.64-16.56
		c-1.954-6.244-4.658-13.001-4.56-20.4c-2.776,0.896-4.416,4.006-6.48,6.24c-4.318,4.673-8.179,9.278-11.76,14.64
		c-1.741,2.607-3.947,5.397-5.04,8.16c-1.246,3.15-1.924,7.288-2.88,11.28c-1.854,7.745-3.344,15.834-4.08,24.24
		c-0.389,4.439-1.202,9.372-0.72,13.68c0.586,5.238,3.62,11.389,6,16.561c3.859,8.386,8.233,15.64,17.04,18
		c-0.169-3.683-4.62-4.326-4.56-7.44c4.996-2.553,6.889,3.649,8.4,7.2c3.189,7.496,7.35,16.598,9.36,24.72
		c7.43-3.45,14.909-6.851,23.76-8.88c-2.382-6.256-2.933-16.568,3.359-18.96c3.721-1.413,7.642,0.225,10.801,2.4
		c1.841-1.999,3.021-4.658,6.72-4.8c-1.714-3.887-4.627-6.574-6.72-10.08c-1.828-2.022-6.151-3.806-4.561-7.681
		c3.151-0.272,4.998,2.751,6.72,4.561c6.494,6.823,11.487,15.152,14.16,25.2c2.07,0.375,5.37,0.375,7.44,0
		c0.558-2.282-3.617-2.787-2.64-5.521c2.934-1.213,5.188,1.832,6.72,3.601c6.528,7.533,12.626,16.024,17.28,24.96
		c6.741-4.938,14.254-9.105,22.8-12.24c-2.927-5.104-4.996-16.736,1.92-18.96c2.86-0.92,6.759,0.171,9.359,1.439
		c1.306-2.135,3.136-3.744,5.04-5.279c-4.201-5.032-9.298-9.604-14.399-13.681c-1.604-1.281-4.3-2.703-3.84-5.279
		c5.354-1.134,7.778,4.657,11.76,6.479c3.68-5.442,9.829-9.688,13.2-14.64c-4.929-1.872-8.817-4.783-12.721-7.681
		c-2.535-0.155-6.813,2.037-7.92,0.24c-1.795-2.914,4.128-3.103,6.48-3.84c0.94-2.899-0.488-8.168,3.84-7.68
		c2.103,1.748,0.291,5.836,0.48,8.64c2.598,1.827,4.271,2.91,6.479,4.08c2.197,1.164,4.489,2.77,6.96,3.6
		c7.158,2.407,16.957,2.848,25.68,2.4c14.654-0.752,29.327-7.567,38.641-15.36c10.17-8.509,17.192-20.385,18.239-36
		c0.72-10.717-2.053-20.405-8.399-24.48c-3.311-2.126-10.22-1.905-12.96-0.24c-5.975,3.631-3.382,17.728,4.8,16.8
		c2.587-0.293,4.609-3.985,6.96-1.2c-1.117,2.963-3.098,5.062-6.72,5.52c-2.464,8.138-6.26,15.898-16.08,16.08
		c-11.396,0.211-18.092-7.558-24.48-13.92c-6.631-6.604-11.922-14.446-16.8-21.6c-5.132-7.526-10.192-15.953-16.319-22.08
		c-3.189-3.189-7.134-5.517-11.521-7.68c-5.509-2.715-11.907-5.736-18.24-5.28c0.515,1.795,2.909,5.423-0.239,5.52
		c-1.599,0.049-5.114-5.237-6.721-6.72c-3.021-2.788-5.539-4.464-7.68-6c-1.67,1.077-2.908,2.464-3.84,4.56
		c-0.863,1.94-0.604,5.104-3.84,4.8c-1.929-4.584,1.314-9.758,3.84-12.24C170.76,15.415,165.456,9.533,157.204,7.022z
		 M232.324,185.583c0.574-0.146,1.095-0.346,1.92-0.24c-0.761-2.395-2.344-4.748-4.08-7.68c-0.734-1.24-3.614-7.142-5.04-7.44
		c-1.595-0.334-3.339,1.767-3.6,3.12c-0.981,5.077,4.592,8.269,4.8,12.24c0.96,0,1.92,0,2.88,0
		C229.696,185.98,231.832,185.98,232.324,185.583z M152.164,186.302c0.4,0,0.8,0,1.2,0c-1.466-3.886-2.571-12.771-5.28-14.88
		c-1.737-1.354-4.987-0.732-6,0.96c-2.459,4.11,2.816,8.709,2.4,13.2c1.308,0.212,2.38,0.659,4.08,0.479
		C149.29,186.616,151.039,186.147,152.164,186.302z M139.444,185.822c0.399,0,0.8,0,1.199,0
		c-0.606-5.752-2.862-14.318-10.319-13.199c-5.627,0.844-4.326,10.079-2.16,14.159c1.421-0.419,2.864-0.815,4.8-0.72
		C135.045,185.904,137.761,186.38,139.444,185.822z M211.444,173.822c-6.083-0.274-3.894,10.67-1.44,13.92
		c4.69,0.051,7.677-1.603,12.24-1.68C220.918,180.913,217.042,174.075,211.444,173.822z M94.563,190.623
		c-1.587-4.662-3.431-8.402-4.32-12c-1.41-0.591-2.492-1.509-4.08-1.92c-1.583,7.696-5.243,13.316-7.68,20.159
		c5.581,6.02,12.82,10.381,21.36,13.44c0.613-1.866,1.663-3.297,1.92-5.521C95.917,203.299,96.489,196.277,94.563,190.623z
		 M165.364,181.743c-2.67,0.916-7.031,0.071-9.12,0.96c2.061,3.401,2.451,10.181-1.44,11.76c0.087,2.087-1.026,2.973-0.72,5.279
		c4.866,3.854,10.676,6.765,17.521,8.641c1.199-4.24,2.485-8.395,5.039-11.28C173.737,191.129,169.419,186.567,165.364,181.743z
		 M228.003,188.942c-7.148,0.458-14.699,1.859-21.12,4.32c-8.03,3.078-16.369,6.395-20.399,12.479
		c11.781,3.429,23.801,0.292,33.84-3.359c6.983-2.54,13.671-6.948,16.08-12.72C234.098,188.684,230.639,188.773,228.003,188.942z
		 M122.884,192.062c-7.397,2.168-15.392,4.398-19.68,8.88c18.535,3.823,40.004-0.633,49.92-10.319
		C143.43,187.743,130.466,189.84,122.884,192.062z M186.484,210.302c-4.639-0.875-5.589-5.057-7.44-8.88
		c-2.827,1.103-3.554,5.552-3.6,8.64c4.07,1.89,10.21,3.304,14.88,3.12c0.401-0.398,0.19-1.409,0.24-2.16
		C189.586,209.814,187.745,210.541,186.484,210.302z M123.844,213.182c2.023,0.184,3.308-0.372,5.28-0.24
		c1.187-1.949,1.611-5.888,1.68-8.16c-3.106,0.297-5.928,1.179-9.12,0.721c-0.733,2.163-2.818,5.479-1.92,7.68c0.16,0,0.32,0,0.48,0
		C120.893,213.581,123.194,213.581,123.844,213.182z M105.844,205.742c-0.594,2.047-2.042,3.238-2.16,5.761
		c3.777,0.542,7.329,1.311,11.28,1.68c1.238-1.963,1.895-4.506,2.16-7.44C113.06,205.825,109.675,205.282,105.844,205.742z
		 M198.484,213.182c2.62-0.02,5.576,0.296,5.04-2.88c-1.591,0.09-2.777,0.583-4.561,0.479c-0.96,0-1.92,0-2.88,0
		c-0.56,0-1.12,0-1.68,0c-0.04,0.764-0.563,1.768,0,2.4c0.283,0.276,0.848,0.271,1.439,0.24
		C196.652,213.27,198.073,213.731,198.484,213.182z"/>
	<path fill-rule="evenodd" clip-rule="evenodd" fill="#242327" d="M261.124,150.783c1.244-0.405,1.824,0.649,3.12,0.96
		c3.596,0.86,8.817-0.187,11.76-1.2c0.963-0.332,2.637-0.022,2.64,1.439C278.652,155.426,258.957,158.494,261.124,150.783z"/>
	<path fill-rule="evenodd" clip-rule="evenodd" fill="#FFFFFF" d="M226.083,79.982c-3.367-0.473-5.469-2.211-6.479-5.04
		c7.28-0.633,4.405-14.486-3.12-10.08c-0.628-5.633,4.936-9.582,10.08-6.96c5.214,2.657,11.62,20.213,2.399,22.08
		C228.003,79.982,227.043,79.982,226.083,79.982z"/>
</g>
</svg>
