<?xml version="1.0" encoding="utf-8"?>
<!-- Generator: Adobe Illustrator 12.0.0, SVG Export Plug-In . SVG Version: 6.00 Build 51448)  -->
<!DOCTYPE svg PUBLIC "-//W3C//DTD SVG 1.1//EN" "http://www.w3.org/Graphics/SVG/1.1/DTD/svg11.dtd" [
	<!ENTITY ns_svg "http://www.w3.org/2000/svg">
	<!ENTITY ns_xlink "http://www.w3.org/1999/xlink">
]>
<svg  version="1.1" id="Ebene_1" xmlns="&ns_svg;" xmlns:xlink="&ns_xlink;" width="223.021" height="283.439"
	 viewBox="0 0 223.021 283.439" overflow="visible" enable-background="new 0 0 223.021 283.439" xml:space="preserve">
<g>
	<path fill="#06141D" d="M120.721,0c2.72,0,5.438,0,8.158,0c7.77,0.608,9.385,4.656,11.762,11.76c1.498,4.48,2.115,8.33,1.68,12.96
		c-4.229,5.772-8.713,11.288-12.72,17.28c22.774,4.424,31.688,22.71,37.92,43.68c1.256-0.092,1.973-3.854,3.84-3.36
		c0.638,2.938-2.296,4.221-3.12,6.48c0.967,3.753,1.476,7.964,2.4,11.76c3.388-1.693,6.991-4.793,9.84-7.92
		c0.922-1.013,1.445-2.847,3.12-2.88c0.021,2.997-2.652,5.127-4.562,6.96c-2.021,1.943-4.485,3.572-6.479,5.28
		c1.265,3.135,3.471,5.329,5.278,7.92c1.241-0.254,2.147-1.938,3.602-1.2c0.229,1.909-1.496,1.864-2.16,2.88
		c11.069,16.03,21.684,31.563,33.6,46.8c3.881,4.962,8.752,9.854,9.842,16.801c0,2.08,0,4.159,0,6.239
		c-0.854,7.849-9.323,12.601-16.562,8.641c-5.708-3.123-7.763-11.803-12.24-15.601c0.481,19.36-6.151,31.606-16.08,40.561
		c-1.349,11.149-2.53,24.01-3.84,36.479c-0.438,4.188-1.885,8.896-1.199,12c0.614,2.786,4.983,3.424,6,6
		c1.136,2.88-0.629,11.878-2.399,12.721c-1.583,0.753-8.7,0.396-11.76,0.479c-4.445,0.123-9.202-0.141-12.722,0
		c-1.808,0.072-3.308,0.678-4.8-0.479c-1.135-15.824,0.043-33.964-1.2-49.681c-1.678,0.563-3.292,3.267-5.76,3.84
		c-0.855,14.446-1.229,30.032-0.72,45.12c-3.484,2.355-10.477,1.205-15.602,1.92c-4.64,0-9.278,0-13.92,0
		c-1.719-1.747-4.52-6.75-3.84-10.319c0.572-3.009,6.715-5.243,7.44-7.92c-1.605-6.075-2.312-13.051-3.12-19.92
		c-11.374,1.441-22.254,0.671-31.682-2.16c-14.876-4.469-26.701-13.151-30.72-27.601c-0.527-1.9-1.774-4.72-0.479-6
		c1.142,1.267,1.063,2.988,1.438,4.32c0.438,1.546,0.963,2.868,1.681,4.319c8.285,16.755,36.96,26.143,59.521,16.561
		c-0.135-3.176,0.422-5.658,0.24-8.88c-20.114-9.246-27.164-31.557-27.12-60.961c-9.956,0.671-23.002,4.111-34.562,1.681
		c-5.138-1.081-11.69-6.241-16.56-9.12c-5.727-3.388-10.932-8.631-15.12-10.8c-4.787-2.479-9.237-3.957-11.52-8.16
		c-3.764-6.929,0.775-14.942,5.76-17.04c10.861-4.568,19.143,4.444,25.438,9.12c2.622,1.946,5.437,3.607,8.642,5.279
		c2.991,1.562,6.714,4.363,9.6,4.561c1.911,0.131,4.139-1.04,6.24-1.681c6.486-1.973,11.996-4.201,17.28-6.72
		c-0.665-1.977-1.753-3.527-2.642-5.28c-5.692-0.151-11.679-0.761-16.318-1.92c-1.378-0.344-3.801-0.444-4.08-2.16
		c0.945-1.409,2.828-0.101,4.08,0.24c4.583,1.247,10.105,2,15.358,1.439c-1.349-2.65-2.126-5.874-3.358-8.64
		c-1.509-0.646-3.438-1.123-5.28-1.68c-1.672-0.504-4.335-0.642-4.561-2.641c0.796-0.971,2.784,0.062,4.319,0.48
		c1.725,0.471,3.416,1.082,4.8,1.44c-1.125-6.453-2.939-12.215-3.358-18.961c-0.988-15.906,4.887-28.787,12.479-36.239
		c1.105-1.084,2.771-1.828,3.36-3.36c-3.392-1.363-6.627-2.417-10.08-3.84c-2.73-1.125-6.847-2.532-8.88-5.04
		c-2.647-3.264-4.661-11.272-5.04-16.56c-0.438-6.093,1.215-8.896,4.08-11.761c2.579-2.579,7.604-6.388,12.239-6.239
		c2.887,0.092,6.296,2.225,8.641,3.359c2.459,1.19,6.055,2.537,7.68,4.32c2.709,2.971,3.182,8.335,4.08,12.96
		c0.964,4.955,1.844,10.263,2.16,15.12c3.438-1.444,8.981-2.858,13.2-4.32c-1.387-3.271-2.141-6.644-3.36-10.08
		c-1.171-3.298-3.334-6.661-3.6-10.08c-0.365-4.698,2.773-9.583,5.52-13.439C112.642,5.296,116.324,0.659,120.721,0z M133.68,32.88
		c1.574-2.212,6.05-7.21,6.479-9.6c0.589-3.263-0.845-6.854-1.68-9.841c-0.863-3.084-1.937-6-3.12-8.64
		c-4.234-2.653-11.798-3.878-16.562-1.92c-2.962,1.219-5.572,5.465-7.438,8.4c-1.975,3.103-5.04,7.679-5.04,11.039
		c0,1.548,1.1,3.388,1.68,5.04c1.93,5.497,3.393,10.421,5.28,15.36c4.197-0.603,8.483-1.117,13.44-0.96
		C128.822,39.286,131.256,36.287,133.68,32.88z M94.32,33.6c-0.791-4.376-1.387-9.733-3.84-12.479
		c-1.847-2.065-5.064-3.08-7.44-4.32c-2.646-1.38-5.136-2.755-8.16-3.6c-5.033,1.727-11.843,6.084-13.199,11.04
		c-0.96,3.507,0.268,7.588,1.199,11.52c0.692,2.917,1.48,7.313,3.12,9.12c1.575,1.737,7.423,3.988,9.36,4.8
		c2.437,1.022,7.813,3.808,10.56,3.6c3.839-0.292,6.478-4.306,10.32-5.279C95.944,43.171,95.163,38.263,94.32,33.6z M123.12,43.68
		c-17.783,0.776-29.899,7.219-40.8,14.88c-1.062,0.86-2.021,1.82-2.88,2.88c-5.813,6.908-9.671,15.77-9.841,28.32
		c-0.398,0.729-0.398,3.111,0,3.84c-0.025,8.026,1.692,14.308,3.601,20.4c9.482,3.307,25.231,3.018,36.24,1.92
		c-1.893,2.029-5.983,1.856-9.36,2.399c-1.283,0.156-3.195-0.314-4.08,0.24c-0.08,0-0.16,0-0.24,0
		c-1.202-0.557-3.438-0.083-5.039-0.24c-6.034-0.285-11.848-0.793-16.801-2.159c0.776,3.224,2.081,5.919,3.36,8.64
		c4.414,0.094,8.541-0.099,12-0.96c1.056-1.592-1.661-3.596,0.24-4.56c1.762,0.558,0.705,3.934,3.84,3.119
		c0.333,0.548,1.67,0.09,2.398,0.24c5.319,0.961,10.432-2.585,14.4-2.16c-0.814,2.944-5.52,2.001-7.92,3.36
		c1.855,0.91,3.736,2.697,6,2.4c1.812-0.238,2.254-2.538,4.08-1.921c0.735,1.773-1.938,1.791-2.16,3.36
		c2.549,0.731,5.271,1.29,8.64,1.2c0.338,0.396,2.306,0.396,2.642,0c10.058-0.262,16.328-4.313,20.398-10.561
		c-0.928-0.512-2.709-0.171-2.398-1.92c0.807-0.376,2.408,0.231,3.6,0.24c1.159-1.081,2.515-1.966,3.12-3.6
		c-2.305,0.135-6.146,2.602-7.2-0.24c2.899-0.767,5.562-0.157,7.92-1.2c1.288-0.568,2.29-2.593,3.36-3.84
		c2.473-2.881,6.797-5.011,7.44-8.88c-4.396,3.169-9.47,7.094-14.4,9.84c-1.454,0.809-3.651,2.646-5.28,1.44
		c7.54-4.771,15.156-9.29,21.84-15.36c1.539-1.397,5.738-4.923,6-6.48c0.304-1.793-1.931-7.092-2.88-9.84
		c-6.091-17.638-15.833-32.695-37.2-34.8C125.424,43.282,123.456,43.282,123.12,43.68z M158.88,97.92c1.104,0.77-0.129,1.9,0,3.12
		c0.526,1.396,3.32,1.796,2.4,3.84c-1.965,0.285-1.742-1.619-3.12-1.92c-2.392,1.004-4.454,3.682-6,5.52
		c-0.541,0.644-1.688,1.326-1.2,1.92c6.585-2.056,12.881-4.399,17.762-8.159c-1.095-3.626-1-8.441-2.642-11.521
		C164.107,93.547,161.218,95.458,158.88,97.92z M152.641,116.88c7.67-0.17,14.03-1.649,19.198-4.32
		c-1.216-2.544-1.587-5.933-2.88-8.399c-5.747,3.611-12.109,6.608-19.92,8.159c-0.77,1.495-3.459,3.549-3.12,4.561
		c0.4,0,0.802,0,1.2,0C148.404,117.279,151.355,117.279,152.641,116.88z M175.92,111.36c-1.187-2.813-3.1-4.899-4.8-7.199
		C171.991,107.115,171.618,113.381,175.92,111.36z M211.681,160.08c-11.987-15.687-23.369-32.064-34.32-47.521
		c-0.16,0-0.32,0-0.48,0c-0.854,0.667-2.402,0.638-2.64,1.92c5.474,15.576,13.273,30.696,17.521,47.521
		c0.621,2.465,0.814,5.34,1.68,7.681c1.059,2.867,3.963,5.609,6.24,8.88c2.932,4.212,4.69,9.535,10.318,10.08
		c1.645-3.706-2.587-6.986-0.96-9.12c2.525,1.526,3.259,5.95,2.642,9.84c2.794-0.577,5.62-0.815,6.238-3.119
		c0.891-3.313-2.378-6.226-1.92-9.12c2.757,0.764,2.688,4.354,3.84,6.72C223.262,173.433,216.396,166.25,211.681,160.08z
		 M191.761,175.92c-1.685-25.356-12.741-41.339-19.682-61.44c-7.33,3.101-17.161,4.878-27.84,3.84
		c-0.935,0.985-1.854,1.986-2.64,3.12c-1.381,1.181-2.66,2.459-3.842,3.84c-5.988,5.86-21.423,7.152-30.479,3.12
		c-7.114,3.847-14.925,6.996-23.521,9.359c0.4,3.04,0.799,6.083,0.96,9.36c0.157,1.362-0.314,3.354,0.24,4.319
		c0,2.16,0,4.319,0,6.479c0.158,1.922-0.316,4.478,0.24,6c0,1.359,0,2.721,0,4.08c0.153,0.887-0.311,2.391,0.24,2.88
		c0.442,18.437,4.263,33.497,13.2,43.439c1.02,1.222,2.14,2.341,3.358,3.36c5.95,5.01,13.07,8.85,23.76,9.12
		c2.723,0.399,7.119,0.399,9.842,0c18.123-0.917,31.585-6.496,42.479-14.641c1.062-0.859,2.021-1.819,2.88-2.881
		c5.675-6.885,10.153-14.967,10.801-26.88C192.16,180.797,192.16,177.523,191.761,175.92z M52.32,141.36
		c-5.774-2.752-11.209-5.425-16.8-9.359c-6.001-4.225-12.386-11.591-21.84-8.88c2.401,1.118,5.945,1.094,6.239,4.319
		c-2.29-0.845-5.698-2.609-9.12-3.12c-1.636,1.243-3.167,2.593-3.6,5.04c3.688,1.053,8.981,1.711,9.36,5.28
		c-3.104-0.529-5.927-3.331-10.08-3.601c-0.369,1.312-0.212,3.146-0.24,4.8c1.758,3.908,5.659,5.902,9.84,7.92
		c3.663,1.769,7.312,4.502,10.8,7.2c3.239,2.506,6.96,4.722,10.562,7.2c5.039,3.47,9.467,6.354,16.08,6.72
		c10.523,0.583,20.131-0.275,29.04-2.159c1.004-7.69,0.613-18.021-1.2-24.479c-2.299,0.654-6.829,2.397-8.641,1.199
		c1.193-2.564,6.273-1.246,8.159-3.12c-0.566-0.553-0.768-1.472-1.199-2.159C71.263,137.182,63.5,140.859,54,142.8
		C53.141,142.62,52.983,141.737,52.32,141.36z M90.24,125.52c-0.632,0.329-0.91,1.011-1.68,1.2c-2.905-1.291-6.952,0.18-10.32,0
		c1.482,3.157,3.208,6.072,4.56,9.36c8.536-1.864,15.66-5.141,22.562-8.641C101.401,124.93,96.21,124.486,90.24,125.52z
		 M148.08,227.521c-0.104,17.306,0.418,36.063,0.96,53.521c6.733,0.094,13.139-0.143,19.2-0.721c0.984-2.374-0.834-6.818,0.72-8.159
		c2.139,1.063,0.845,5.557,1.2,8.399c1.303,0.184,1.86-0.38,3.12-0.24c1.242-1.957-0.664-7.063,1.44-8.159
		c1.76,1.469,0.715,5.609,0.479,7.92c1.084-2.361,2.644-5.988,2.16-8.641c-0.657-3.601-6.121-4.097-7.2-7.199
		c1.704-15.896,4.341-32.14,5.28-48C168.507,222.188,157.892,224.452,148.08,227.521z M115.92,266.881
		c-2.256,1.431-7.619,4.959-7.92,7.199c-0.244,1.82,1.257,3.886,1.92,5.761c-0.437-1.908-0.463-6.23,1.44-5.761
		c0.607,2.26-0.354,4.779,0.479,6.96c1.007,0.596,2.697,0.504,4.32,0.479c-0.784-2.373-1.48-7.522,1.68-7.92
		c0.047,1.977-1.328,6.092,0.48,7.92c6.906,0.188,12.801-0.64,18.96-1.2c0.575-17.023-0.347-35.547,1.2-51.6
		c-9.253,0.757-19.086,0.057-25.92-2.4C111.591,241.025,113.046,255.234,115.92,266.881z"/>
	<path fill="#7E4824" d="M126.721,41.76c-4.957-0.157-9.243,0.357-13.44,0.96c-1.889-4.939-3.352-9.864-5.28-15.36
		c-0.58-1.652-1.68-3.492-1.68-5.04c0-3.36,3.066-7.937,5.04-11.04c1.866-2.935,4.478-7.182,7.438-8.399
		c4.764-1.958,12.326-0.733,16.562,1.92c1.185,2.64,2.257,5.556,3.12,8.64c0.835,2.986,2.269,6.579,1.68,9.84
		c-0.431,2.39-4.905,7.388-6.479,9.601C131.256,36.287,128.822,39.286,126.721,41.76z"/>
	<path fill="#7E4824" d="M96.24,48c-3.844,0.974-6.481,4.989-10.32,5.28c-2.746,0.207-8.123-2.578-10.56-3.601
		c-1.938-0.813-7.785-3.063-9.36-4.8c-1.64-1.808-2.428-6.203-3.12-9.12c-0.933-3.932-2.159-8.013-1.199-11.52
		c1.356-4.956,8.166-9.313,13.199-11.04c3.024,0.845,5.516,2.219,8.16,3.6c2.376,1.24,5.595,2.255,7.44,4.32
		c2.453,2.746,3.049,8.104,3.84,12.479C95.163,38.263,95.944,43.171,96.24,48z"/>
	<path fill="#7E4824" d="M123.12,43.68c0.336-0.397,2.304-0.397,2.64,0C124.88,43.68,124,43.68,123.12,43.68z"/>
	<path fill="#06141D" d="M124.561,90.48c-1.873-2.526-3.031-5.769-2.881-10.319c-0.902-0.704-1.789,1.143-2.641,0
		c0.315-3.629,1.137-6.614,2.4-9.841c0.961-2.454,2.524-6.643,4.318-7.92c2.554-1.815,8.723-2.357,12.24-2.159
		c6.456,0.363,8.324,4.796,11.28,9.359c1.984,3.065,3.909,6.028,4.56,9.36c-0.557-0.076-0.921,0.039-1.198,0.24
		c-0.074-0.326-0.603-0.199-0.96-0.24c0,0.72,0,1.439,0,2.16c-0.826,8.854-5.931,13.431-14.4,14.64c-0.88,0-1.76,0-2.64,0
		c-3.269-0.253-5.519-1.523-7.682-2.88C126.261,91.979,125.461,91.18,124.561,90.48z M142.32,63.12
		c-5.086-1.427-12.088-0.621-15.84,1.439c-2.059,4.184-3.812,8.67-5.28,13.44c7.053-4.704,21.622-3.951,30-1.681
		C148.563,71.598,145.518,67.283,142.32,63.12z M137.76,93.6c7.813-1.134,12.529-6.419,11.762-15.359
		c-2.618-0.902-5.951-1.09-8.88-1.681c3.079,3.316,2.317,10.938-3.12,11.04c-0.8,0-1.602,0-2.4,0
		c-5.075,0.066-7.351-6.415-4.56-10.56c-2.572,0.388-5.062,0.858-6.722,2.16c-0.642,7.986,3.442,13.149,10.32,14.399
		C134.81,93.999,137.11,93.999,137.76,93.6z"/>
	<path fill="#06141D" d="M94.561,105.12c-5.96-0.682-9.043-4.238-11.04-8.88c-1.24-0.04-1.109,1.291-2.4,1.199
		c-1.017-5.092-1.867-15.548,0.479-20.159c1.632-3.206,10.707-8.046,15.359-7.681c2.268,0.178,4.884,2.019,6.721,3.12
		c2.188,1.313,4.021,2.952,5.761,4.08c0.699,0.9,1.499,1.7,2.398,2.4c0.365,0.755,1.069,1.171,1.2,2.159
		c-0.405,0.794-1.468,0.933-2.398,1.2c4.537,10.92-1.082,22.204-12.24,22.561C97.12,105.12,95.84,105.12,94.561,105.12z
		 M82.32,91.68c0,0.8,0,1.601,0,2.4c6.21-6.511,16.267-11.253,27.6-13.44c-0.924-1.927-3.469-3.219-5.76-4.8
		c-2.109-1.457-4.767-3.732-7.2-4.08c-5.634-0.807-9.72,3.738-13.438,6.24c-0.402,3.118-1.122,5.918-0.96,9.6
		C82.005,88.485,82.477,90.396,82.32,91.68z M101.28,84.96c4.979,4.893,0.562,14.689-6.48,12.479
		c-2.688-0.844-4.344-4.091-4.56-7.439c-1.503,1.621-4.606,1.922-5.04,4.08c-0.839,4.169,5.051,8.627,9.36,9.12
		c13.394,1.53,19.869-11.202,13.438-20.4C105.728,83.488,103.408,84.128,101.28,84.96z"/>
	<path fill="#7E4824" d="M152.641,79.2c-1.435-0.474-0.205,1.715-0.96,1.92c0-0.721,0-1.44,0-2.16
		C152.039,79.001,152.566,78.875,152.641,79.2z"/>
	<path fill="#7E4824" d="M82.561,87.6c-0.157,1.284,0.313,3.195-0.24,4.08C82.477,90.396,82.005,88.485,82.561,87.6z"/>
	<path fill="#466E4C" d="M135.12,87.6c0.8,0,1.602,0,2.4,0C137.262,87.998,135.379,87.998,135.12,87.6z"/>
	<path fill="#7E4824" d="M69.6,89.76c0,1.28,0,2.56,0,3.84C69.201,92.872,69.201,90.49,69.6,89.76z"/>
	<path fill="#466E4C" d="M134.16,93.6c1.2,0,2.4,0,3.6,0C137.11,93.999,134.81,93.999,134.16,93.6z"/>
	<path fill="#7E4824" d="M134.641,95.76c0.88,0,1.76,0,2.64,0C136.944,96.158,134.977,96.158,134.641,95.76z"/>
	<path fill="#7E4824" d="M171.12,104.16c1.7,2.3,3.613,4.387,4.8,7.199C171.618,113.381,171.991,107.115,171.12,104.16z"/>
	<path fill="#7E4824" d="M94.561,105.12c1.278,0,2.56,0,3.84,0C97.672,105.519,95.289,105.519,94.561,105.12z"/>
	<path fill="#7E4824" d="M219.84,183.84c-1.152-2.366-1.083-5.956-3.84-6.72c-0.458,2.896,2.811,5.809,1.92,9.12
		c-0.618,2.304-3.444,2.542-6.238,3.119c0.617-3.89-0.115-8.313-2.642-9.84c-1.627,2.134,2.604,5.414,0.96,9.12
		c-5.628-0.545-7.388-5.868-10.318-10.08c-2.277-3.271-5.183-6.013-6.24-8.88c-0.864-2.341-1.059-5.216-1.68-7.681
		c-4.247-16.824-12.048-31.944-17.521-47.521c0.236-1.283,1.786-1.253,2.64-1.92c0.16,0,0.32,0,0.48,0
		c10.951,15.456,22.333,31.834,34.32,47.521C216.396,166.25,223.262,173.433,219.84,183.84z"/>
	<path fill="#06141D" d="M119.521,122.88c-1.194-1.366-1.443-3.678-1.682-6c1.655-2.238,9.455-5.552,12.722-3.12
		c1.093,0.814,2.229,3.624,1.68,5.76C131.522,122.307,123.373,124.859,119.521,122.88z"/>
	<path fill="#06141D" d="M24,116.4c-2.776-0.366-6.93-2.401-10.56-0.72c-0.354-2.591,3.373-2.613,5.52-2.399
		C21.385,113.521,24.502,114.818,24,116.4z"/>
	<path fill="#7E4824" d="M147.12,116.88c1.84,0,3.68,0,5.521,0C151.355,117.279,148.404,117.279,147.12,116.88z"/>
	<path fill="#7E4824" d="M90.72,118.32c1.603,0.157,3.837-0.316,5.039,0.24C94.158,118.403,91.924,118.877,90.72,118.32z"/>
	<path fill="#7E4824" d="M96,118.56c0.885-0.555,2.797-0.083,4.08-0.24C99.195,118.875,97.284,118.404,96,118.56z"/>
	<path fill="#7E4824" d="M54,142.8c9.5-1.94,17.264-5.617,25.681-8.64c0.433,0.688,0.633,1.606,1.199,2.159
		c-1.886,1.874-6.966,0.556-8.159,3.12c1.812,1.198,6.342-0.545,8.641-1.199c1.813,6.459,2.204,16.789,1.2,24.479
		c-8.909,1.884-18.517,2.742-29.04,2.159c-6.613-0.366-11.041-3.25-16.08-6.72c-3.602-2.479-7.322-4.694-10.562-7.2
		c-3.488-2.698-7.137-5.433-10.8-7.2c-4.181-2.018-8.082-4.012-9.84-7.92c0.027-1.652-0.129-3.488,0.24-4.8
		c4.153,0.27,6.977,3.07,10.08,3.601c-0.378-3.569-5.672-4.229-9.36-5.28c0.432-2.447,1.963-3.797,3.6-5.04
		c3.422,0.511,6.831,2.275,9.12,3.12c-0.293-3.227-3.837-3.203-6.239-4.319c9.454-2.711,15.839,4.655,21.84,8.88
		c5.591,3.936,11.024,6.607,16.8,9.359C52.983,141.737,53.141,142.62,54,142.8z"/>
	<path fill="#7E4824" d="M93.36,122.4c0.729,0.15,2.066-0.308,2.398,0.24C95.03,122.49,93.693,122.948,93.36,122.4z"/>
	<path fill="#7E4824" d="M118.8,128.88c0.881,0,1.762,0,2.642,0C121.104,129.278,119.137,129.278,118.8,128.88z"/>
	<path fill="#06141D" d="M0,143.76c0-0.72,0-1.439,0-2.159c0.167-0.188,1.339-0.534,1.44,0c0.815,3.11,2.953,5.227,5.28,6.479
		c1.732,0.935,4.271,0.975,5.279,2.399c-2.006,1.569-5.116,0.187-6.72-0.721C2.921,148.428,0.982,145.803,0,143.76z"/>
	<path fill="#7E4824" d="M84.72,147.12c0.556,0.965,0.084,2.957,0.239,4.319C84.404,150.476,84.877,148.483,84.72,147.12z"/>
	<path fill="#06141D" d="M0.48,150c2.347,1.093,4.352,2.527,6.72,3.601C6.194,155.581-0.197,153.245,0.48,150z"/>
	<path fill="#7E4824" d="M84.96,157.92c0.559,1.521,0.082,4.078,0.24,6C84.643,162.397,85.118,159.842,84.96,157.92z"/>
	<path fill="#7E4824" d="M85.2,168c0.551,0.489,0.087,1.993,0.24,2.88C84.89,170.391,85.354,168.887,85.2,168z"/>
	<path fill="#7E4824" d="M191.761,175.92c0.398,1.604,0.398,4.877,0,6.479C191.761,180.24,191.761,178.08,191.761,175.92z"/>
	<path fill="#7E4824" d="M175.44,216.24c-0.939,15.86-3.576,32.104-5.28,48c1.079,3.104,6.543,3.6,7.2,7.199
		c0.482,2.651-1.076,6.278-2.16,8.641c0.235-2.311,1.28-6.451-0.479-7.92c-2.104,1.097-0.198,6.202-1.44,8.159
		c-1.26-0.14-1.817,0.424-3.12,0.24c-0.355-2.844,0.938-7.338-1.2-8.399c-1.554,1.341,0.266,5.785-0.72,8.159
		c-6.063,0.578-12.467,0.813-19.2,0.721c-0.542-17.458-1.063-36.215-0.96-53.521C157.892,224.452,168.507,222.188,175.44,216.24z"/>
	<path fill="#7E4824" d="M112.561,226.32c6.834,2.457,16.667,3.157,25.92,2.4c-1.547,16.053-0.625,34.575-1.2,51.6
		c-6.159,0.562-12.054,1.388-18.96,1.2c-1.809-1.828-0.434-5.943-0.48-7.92c-3.16,0.396-2.464,5.547-1.68,7.92
		c-1.623,0.023-3.313,0.115-4.32-0.479c-0.832-2.181,0.13-4.7-0.479-6.96c-1.903-0.471-1.877,3.853-1.44,5.761
		c-0.663-1.875-2.164-3.939-1.92-5.761c0.302-2.24,5.664-5.77,7.92-7.199C113.046,255.234,111.591,241.025,112.561,226.32z"/>
	<path fill="#7E4824" d="M125.76,226.801c3.28,0,6.562,0,9.842,0C132.879,227.2,128.481,227.2,125.76,226.801z"/>
	<path fill="#7E4824" d="M79.44,61.44c0.858-1.06,1.818-2.02,2.88-2.88C81.461,59.621,80.5,60.581,79.44,61.44z"/>
	<path fill="#7E4824" d="M124.561,90.48c0.899,0.7,1.699,1.5,2.398,2.4C126.06,92.181,125.26,91.381,124.561,90.48z"/>
	<path fill="#EE7F0C" d="M151.2,76.32c-8.378-2.271-22.947-3.023-30,1.681c1.47-4.771,3.223-9.257,5.28-13.44
		c3.752-2.061,10.754-2.866,15.84-1.439C145.518,67.283,148.563,71.598,151.2,76.32z"/>
	<path fill="#7E4824" d="M109.44,76.8c0.899,0.699,1.7,1.5,2.398,2.4C110.939,78.5,110.14,77.701,109.44,76.8z"/>
	<path fill="#EE7F0C" d="M166.08,90.72c1.642,3.079,1.547,7.895,2.642,11.521c-4.881,3.76-11.177,6.104-17.762,8.159
		c-0.487-0.595,0.659-1.276,1.2-1.92c1.546-1.838,3.608-4.516,6-5.52c1.378,0.302,1.155,2.205,3.12,1.92
		c0.92-2.044-1.874-2.444-2.4-3.84c-0.129-1.219,1.104-2.352,0-3.12C161.218,95.458,164.107,93.547,166.08,90.72z"/>
	<path fill="#7E4824" d="M137.76,125.281c1.182-1.381,2.461-2.66,3.842-3.841C140.42,122.82,139.141,124.101,137.76,125.281z"/>
	<path fill="#7E4824" d="M98.641,214.32c1.22,1.021,2.34,2.141,3.358,3.36C100.78,216.66,99.66,215.541,98.641,214.32z"/>
	<path fill="#7E4824" d="M178.08,212.16c0.859-1.062,1.82-2.021,2.88-2.881C180.101,210.341,179.141,211.301,178.08,212.16z"/>
	<path fill="#EE7F0C" d="M141.601,121.44c0.786-1.134,1.705-2.135,2.64-3.12c10.679,1.038,20.51-0.74,27.84-3.84
		c6.939,20.102,17.997,36.083,19.682,61.44c0,2.16,0,4.32,0,6.479c-0.647,11.913-5.127,19.995-10.802,26.88
		c-1.06,0.859-2.021,1.819-2.88,2.881c-10.895,8.145-24.355,13.724-42.479,14.641c-3.28,0-6.562,0-9.842,0
		c-10.688-0.271-17.81-4.11-23.76-9.12c-1.02-1.221-2.14-2.341-3.358-3.36c-8.938-9.942-12.758-25.004-13.2-43.439
		c-0.153-0.887,0.311-2.391-0.24-2.88c0-1.359,0-2.72,0-4.08c-0.158-1.922,0.317-4.479-0.24-6c0-2.16,0-4.319,0-6.479
		c-0.155-1.362,0.315-3.354-0.239-4.319c-0.162-3.277-0.561-6.32-0.96-9.36c8.596-2.363,16.405-5.514,23.521-9.359
		c9.057,4.032,24.49,2.74,30.479-3.119C139.141,124.101,140.42,122.82,141.601,121.44z"/>
	<path fill="#FFFFFF" d="M137.521,87.6c5.438-0.103,6.199-7.724,3.12-11.04c2.929,0.591,6.262,0.778,8.88,1.681
		c0.769,8.939-3.948,14.226-11.762,15.359c-1.198,0-2.398,0-3.6,0c-6.878-1.25-10.962-6.413-10.32-14.399
		c1.66-1.302,4.148-1.772,6.722-2.16c-2.791,4.145-0.517,10.626,4.56,10.56C135.379,87.998,137.262,87.998,137.521,87.6z"/>
	<path fill="#FFFFFF" d="M108,82.8c6.431,9.198-0.046,21.931-13.438,20.4c-4.311-0.493-10.199-4.951-9.36-9.12
		c0.434-2.158,3.537-2.459,5.04-4.08c0.216,3.349,1.871,6.596,4.56,7.439c7.042,2.21,11.462-7.587,6.48-12.479
		C103.408,84.128,105.728,83.488,108,82.8z"/>
	<path fill="#EE7F0C" d="M82.32,58.56c10.898-7.661,23.017-14.104,40.8-14.88c0.88,0,1.76,0,2.64,0
		c21.367,2.104,31.109,17.162,37.2,34.8c0.949,2.749,3.184,8.047,2.88,9.84c-0.262,1.558-4.461,5.083-6,6.48
		c-6.684,6.07-14.3,10.59-21.84,15.36c1.629,1.206,3.826-0.632,5.28-1.44c4.932-2.746,10.004-6.671,14.4-9.84
		c-0.645,3.869-4.969,5.999-7.44,8.88c-1.07,1.247-2.072,3.271-3.36,3.84c-2.358,1.043-5.021,0.434-7.92,1.2
		c1.056,2.842,4.896,0.375,7.2,0.24c-0.605,1.634-1.961,2.519-3.12,3.6c-1.19-0.009-2.793-0.616-3.6-0.24
		c-0.311,1.749,1.472,1.408,2.398,1.92c-4.07,6.248-10.342,10.299-20.398,10.561c-0.88,0-1.761,0-2.642,0
		c-3.368,0.09-6.091-0.469-8.64-1.2c0.224-1.569,2.896-1.587,2.16-3.36c-1.826-0.617-2.27,1.683-4.08,1.921
		c-2.264,0.297-4.146-1.49-6-2.4c2.4-1.359,7.104-0.416,7.92-3.36c-3.97-0.425-9.081,3.122-14.4,2.16
		c-0.332-0.547-1.67-0.089-2.398-0.24c-3.135,0.814-2.078-2.563-3.84-3.12c-1.901,0.965,0.814,2.969-0.24,4.561
		c-3.459,0.861-7.586,1.054-12,0.96c-1.279-2.721-2.584-5.416-3.36-8.64c4.953,1.366,10.767,1.874,16.801,2.159
		c1.203,0.558,3.438,0.083,5.039,0.24c0.08,0,0.16,0,0.24,0c1.284-0.156,3.195,0.315,4.08-0.24c3.377-0.543,7.469-0.371,9.36-2.399
		c-11.009,1.098-26.758,1.387-36.24-1.92c-1.907-6.093-3.626-12.374-3.601-20.4c0-1.28,0-2.56,0-3.84
		c0.17-12.551,4.027-21.413,9.841-28.32C80.5,60.581,81.461,59.621,82.32,58.56z M152.641,79.2c0.277-0.202,0.643-0.316,1.198-0.24
		c-0.649-3.332-2.574-6.295-4.56-9.36c-2.956-4.563-4.824-8.996-11.28-9.359c-3.519-0.199-9.688,0.343-12.24,2.159
		c-1.794,1.277-3.357,5.466-4.318,7.92c-1.264,3.227-2.085,6.212-2.4,9.841c0.852,1.143,1.737-0.704,2.641,0
		c-0.15,4.551,1.008,7.793,2.881,10.319c0.699,0.901,1.499,1.701,2.398,2.4c2.163,1.356,4.413,2.627,7.682,2.88
		c0.336,0.397,2.304,0.397,2.64,0c8.471-1.209,13.574-5.786,14.4-14.64C152.436,80.916,151.207,78.727,152.641,79.2z M109.44,76.8
		c-1.739-1.128-3.572-2.768-5.761-4.08c-1.837-1.102-4.453-2.942-6.721-3.12c-4.652-0.365-13.729,4.475-15.359,7.681
		c-2.348,4.611-1.496,15.066-0.479,20.159c1.291,0.092,1.16-1.239,2.4-1.199c1.997,4.642,5.08,8.198,11.04,8.88
		c0.729,0.398,3.11,0.398,3.84,0c11.158-0.356,16.776-11.641,12.24-22.561c0.932-0.268,1.993-0.406,2.398-1.2
		c-0.131-0.988-0.835-1.404-1.2-2.159C111.141,78.3,110.341,77.5,109.44,76.8z M132.24,119.52c0.55-2.136-0.587-4.945-1.68-5.76
		c-3.267-2.432-11.065,0.882-12.722,3.12c0.237,2.322,0.486,4.634,1.682,6C123.373,124.859,131.522,122.307,132.24,119.52z"/>
	<path fill="#EE7F0C" d="M82.561,87.6c-0.162-3.682,0.558-6.481,0.96-9.6c3.72-2.501,7.806-7.047,13.438-6.24
		c2.435,0.348,5.091,2.624,7.2,4.08c2.291,1.581,4.836,2.873,5.76,4.8c-11.333,2.188-21.39,6.93-27.6,13.44c0-0.8,0-1.601,0-2.4
		C82.875,90.795,82.403,88.884,82.561,87.6z"/>
	<path fill="#EE7F0C" d="M147.12,116.88c-0.398,0-0.8,0-1.2,0c-0.339-1.012,2.352-3.065,3.12-4.561
		c7.811-1.551,14.173-4.548,19.92-8.159c1.293,2.467,1.664,5.855,2.88,8.399c-5.168,2.671-11.528,4.15-19.198,4.32
		C150.8,116.88,148.96,116.88,147.12,116.88z"/>
	<path fill="#EE7F0C" d="M105.36,127.44c-6.9,3.5-14.024,6.775-22.562,8.641c-1.352-3.288-3.076-6.203-4.56-9.36
		c3.368,0.18,7.415-1.291,10.32,0c0.77-0.189,1.048-0.872,1.68-1.2C96.21,124.486,101.401,124.93,105.36,127.44z"/>
</g>
</svg>
