<?xml version="1.0" standalone="no"?><!-- Generator: Gravit.io --><svg xmlns="http://www.w3.org/2000/svg" xmlns:xlink="http://www.w3.org/1999/xlink" style="isolation:isolate" viewBox="0 0 86.436 110" width="86.436" height="110"><defs><clipPath id="_clipPath_vch2LjWlfLCQIU3D24QbS2xKqzu88j1L"><rect width="86.436" height="110"/></clipPath></defs><g clip-path="url(#_clipPath_vch2LjWlfLCQIU3D24QbS2xKqzu88j1L)"><path d=" M 46.851 0 C 47.906 0 48.961 0 50.017 0 C 53.032 0.236 53.659 1.807 54.581 4.564 C 55.163 6.303 55.402 7.797 55.233 9.594 C 53.592 11.834 51.852 13.974 50.297 16.3 C 59.135 18.017 62.595 25.113 65.013 33.251 C 65.501 33.216 65.779 31.756 66.503 31.948 C 66.751 33.088 65.612 33.586 65.293 34.462 C 65.668 35.919 65.865 37.553 66.224 39.026 C 67.539 38.369 68.937 37.166 70.043 35.953 C 70.401 35.559 70.604 34.848 71.254 34.835 C 71.262 35.998 70.224 36.825 69.483 37.536 C 68.699 38.29 67.743 38.922 66.969 39.585 C 67.46 40.802 68.316 41.653 69.017 42.659 C 69.499 42.56 69.85 41.907 70.415 42.193 C 70.504 42.934 69.834 42.916 69.577 43.311 C 73.872 49.532 77.992 55.56 82.616 61.473 C 84.123 63.399 86.013 65.298 86.436 67.994 C 86.436 68.801 86.436 69.608 86.436 70.415 C 86.105 73.461 82.818 75.305 80.008 73.768 C 77.793 72.556 76.996 69.188 75.258 67.714 C 75.445 75.227 72.871 79.98 69.018 83.455 C 68.494 87.782 68.036 92.773 67.528 97.612 C 67.358 99.238 66.796 101.065 67.062 102.269 C 67.3 103.35 68.996 103.598 69.391 104.598 C 69.832 105.715 69.147 109.208 68.46 109.535 C 67.845 109.827 65.083 109.688 63.896 109.721 C 62.171 109.768 60.325 109.666 58.959 109.721 C 58.257 109.749 57.675 109.984 57.096 109.535 C 56.655 103.394 57.112 96.354 56.63 90.254 C 55.979 90.473 55.352 91.522 54.395 91.744 C 54.063 97.351 53.918 103.399 54.115 109.255 C 52.763 110.169 50.049 109.723 48.06 110 C 46.259 110 44.459 110 42.658 110 C 41.991 109.322 40.904 107.38 41.168 105.995 C 41.39 104.828 43.774 103.961 44.055 102.922 C 43.432 100.564 43.158 97.857 42.844 95.191 C 38.43 95.75 34.208 95.451 30.549 94.353 C 24.776 92.618 20.186 89.249 18.627 83.641 C 18.422 82.904 17.938 81.809 18.441 81.312 C 18.884 81.804 18.853 82.472 18.999 82.989 C 19.169 83.589 19.373 84.102 19.651 84.665 C 22.867 91.168 33.995 94.811 42.751 91.092 C 42.698 89.86 42.915 88.896 42.844 87.646 C 35.038 84.058 32.302 75.399 32.319 63.988 C 28.455 64.248 23.392 65.583 18.906 64.64 C 16.912 64.221 14.369 62.218 12.479 61.101 C 10.256 59.786 8.236 57.751 6.611 56.909 C 4.753 55.947 3.026 55.374 2.14 53.743 C 0.68 51.054 2.441 47.944 4.376 47.13 C 8.591 45.357 11.805 48.854 14.248 50.669 C 15.265 51.424 16.358 52.069 17.602 52.718 C 18.763 53.324 20.207 54.411 21.327 54.488 C 22.069 54.539 22.934 54.084 23.749 53.835 C 26.266 53.07 28.405 52.205 30.455 51.227 C 30.197 50.46 29.775 49.859 29.43 49.178 C 27.221 49.12 24.897 48.883 23.097 48.433 C 22.562 48.3 21.622 48.261 21.514 47.595 C 21.88 47.048 22.611 47.556 23.097 47.688 C 24.876 48.172 27.019 48.464 29.057 48.246 C 28.534 47.218 28.232 45.967 27.754 44.893 C 27.169 44.643 26.42 44.458 25.705 44.241 C 25.056 44.046 24.023 43.992 23.935 43.216 C 24.244 42.84 25.015 43.241 25.611 43.403 C 26.281 43.586 26.937 43.823 27.474 43.962 C 27.037 41.457 26.333 39.221 26.171 36.603 C 25.787 30.43 28.067 25.431 31.014 22.539 C 31.443 22.118 32.089 21.83 32.318 21.235 C 31.001 20.706 29.746 20.297 28.406 19.745 C 27.346 19.308 25.749 18.762 24.96 17.789 C 23.932 16.522 23.151 13.414 23.004 11.362 C 22.834 8.997 23.475 7.91 24.587 6.798 C 25.588 5.797 27.538 4.319 29.337 4.376 C 30.457 4.412 31.78 5.24 32.69 5.68 C 33.645 6.142 35.04 6.665 35.671 7.357 C 36.722 8.51 36.906 10.591 37.254 12.386 C 37.628 14.309 37.97 16.369 38.093 18.254 C 39.427 17.694 41.578 17.145 43.215 16.578 C 42.677 15.308 42.384 13.999 41.911 12.666 C 41.457 11.386 40.617 10.081 40.514 8.754 C 40.373 6.93 41.59 5.035 42.656 3.538 C 43.715 2.055 45.144 0.256 46.851 0 Z  M 51.88 12.76 C 52.491 11.902 54.228 9.962 54.394 9.035 C 54.623 7.768 54.066 6.375 53.742 5.216 C 53.407 4.019 52.99 2.887 52.531 1.862 C 50.888 0.833 47.953 0.357 46.104 1.117 C 44.954 1.59 43.941 3.238 43.217 4.377 C 42.451 5.581 41.261 7.357 41.261 8.661 C 41.261 9.262 41.688 9.976 41.913 10.617 C 42.662 12.751 43.23 14.662 43.962 16.578 C 45.591 16.344 47.255 16.145 49.178 16.206 C 49.994 15.246 50.939 14.083 51.88 12.76 Z  M 36.605 13.04 C 36.298 11.342 36.066 9.263 35.114 8.197 C 34.398 7.395 33.149 7.002 32.227 6.52 C 31.2 5.985 30.234 5.451 29.06 5.123 C 27.107 5.793 24.464 7.484 23.938 9.408 C 23.565 10.769 24.042 12.352 24.403 13.878 C 24.672 15.011 24.977 16.717 25.614 17.418 C 26.225 18.092 28.495 18.966 29.246 19.281 C 30.192 19.677 32.279 20.759 33.345 20.678 C 34.834 20.564 35.859 19.007 37.35 18.629 C 37.235 16.754 36.932 14.849 36.605 13.04 Z  M 47.782 16.952 C 40.88 17.253 36.178 19.753 31.948 22.727 C 31.535 23.06 31.163 23.433 30.83 23.844 C 28.574 26.525 27.077 29.964 27.011 34.835 C 26.856 35.118 26.856 36.042 27.011 36.325 C 27.001 39.44 27.667 41.878 28.408 44.242 C 32.088 45.526 38.2 45.413 42.472 44.987 C 41.738 45.775 40.151 45.708 38.84 45.918 C 38.342 45.979 37.6 45.796 37.257 46.011 C 37.226 46.011 37.194 46.011 37.163 46.011 C 36.697 45.795 35.829 45.979 35.208 45.918 C 32.866 45.808 30.61 45.611 28.688 45.08 C 28.989 46.332 29.495 47.378 29.992 48.434 C 31.705 48.47 33.306 48.395 34.649 48.061 C 35.058 47.443 34.004 46.665 34.742 46.291 C 35.426 46.508 35.015 47.818 36.232 47.502 C 36.361 47.714 36.88 47.537 37.163 47.595 C 39.227 47.968 41.211 46.592 42.751 46.757 C 42.435 47.899 40.609 47.533 39.677 48.061 C 40.397 48.414 41.127 49.107 42.006 48.992 C 42.709 48.9 42.881 48.007 43.589 48.246 C 43.875 48.935 42.837 48.942 42.751 49.55 C 43.74 49.834 44.797 50.051 46.104 50.016 C 46.235 50.17 46.999 50.17 47.13 50.016 C 51.033 49.914 53.466 48.342 55.046 45.918 C 54.686 45.719 53.994 45.851 54.115 45.172 C 54.428 45.026 55.05 45.262 55.512 45.266 C 55.962 44.846 56.488 44.503 56.723 43.868 C 55.829 43.921 54.338 44.878 53.929 43.775 C 55.054 43.478 56.087 43.714 57.003 43.31 C 57.502 43.089 57.891 42.303 58.307 41.819 C 59.266 40.701 60.944 39.875 61.194 38.373 C 59.488 39.603 57.519 41.126 55.605 42.192 C 55.041 42.506 54.189 43.219 53.556 42.751 C 56.483 40.899 59.438 39.145 62.032 36.79 C 62.629 36.248 64.259 34.879 64.361 34.275 C 64.479 33.579 63.611 31.523 63.243 30.456 C 60.879 23.611 57.098 17.767 48.806 16.951 C 48.676 16.797 47.912 16.797 47.782 16.952 Z  M 61.66 38.002 C 62.088 38.301 61.61 38.739 61.66 39.213 C 61.864 39.754 62.948 39.91 62.591 40.703 C 61.828 40.813 61.915 40.074 61.38 39.958 C 60.452 40.347 59.652 41.387 59.052 42.1 C 58.842 42.35 58.397 42.615 58.586 42.845 C 61.142 42.047 63.585 41.138 65.479 39.679 C 65.054 38.271 65.091 36.403 64.454 35.207 C 63.688 36.305 62.567 37.046 61.66 38.002 Z  M 59.238 45.36 C 62.215 45.294 64.683 44.72 66.689 43.683 C 66.217 42.696 66.073 41.381 65.571 40.424 C 63.341 41.825 60.872 42.988 57.84 43.59 C 57.542 44.17 56.498 44.968 56.63 45.36 C 56.785 45.36 56.941 45.36 57.095 45.36 C 57.594 45.515 58.739 45.515 59.238 45.36 Z  M 68.273 43.218 C 67.812 42.126 67.07 41.316 66.41 40.424 C 66.748 41.57 66.603 44.002 68.273 43.218 Z  M 82.151 62.125 C 77.499 56.037 73.082 49.682 68.832 43.683 C 68.77 43.683 68.708 43.683 68.646 43.683 C 68.314 43.942 67.713 43.931 67.621 44.428 C 69.745 50.473 72.772 56.341 74.421 62.87 C 74.662 63.827 74.737 64.943 75.073 65.851 C 75.484 66.964 76.611 68.028 77.494 69.298 C 78.632 70.932 79.315 72.998 81.499 73.21 C 82.137 71.771 80.495 70.498 81.126 69.67 C 82.106 70.262 82.391 71.979 82.151 73.489 C 83.236 73.265 84.333 73.173 84.572 72.279 C 84.918 70.993 83.65 69.862 83.827 68.739 C 84.897 69.036 84.87 70.429 85.318 71.347 C 86.646 67.307 83.981 64.52 82.151 62.125 Z  M 74.42 68.273 C 73.766 58.432 69.476 52.229 66.782 44.428 C 63.937 45.632 60.122 46.322 55.978 45.919 C 55.615 46.301 55.258 46.689 54.953 47.13 C 54.417 47.588 53.921 48.084 53.462 48.62 C 51.138 50.894 45.148 51.395 41.633 49.831 C 38.873 51.324 35.841 52.546 32.505 53.463 C 32.66 54.643 32.815 55.824 32.878 57.095 C 32.939 57.624 32.756 58.397 32.971 58.771 C 32.971 59.61 32.971 60.448 32.971 61.286 C 33.032 62.032 32.848 63.024 33.064 63.614 C 33.064 64.142 33.064 64.67 33.064 65.198 C 33.123 65.542 32.943 66.126 33.157 66.316 C 33.329 73.471 34.812 79.315 38.28 83.174 C 38.676 83.648 39.11 84.082 39.583 84.478 C 41.892 86.422 44.655 87.912 48.804 88.017 C 49.861 88.172 51.567 88.172 52.624 88.017 C 59.657 87.661 64.882 85.496 69.109 82.335 C 69.522 82.002 69.894 81.629 70.227 81.217 C 72.429 78.545 74.167 75.408 74.419 70.785 C 74.575 70.165 74.575 68.895 74.42 68.273 Z  M 20.305 54.86 C 18.064 53.792 15.955 52.755 13.785 51.228 C 11.456 49.588 8.978 46.73 5.309 47.782 C 6.241 48.216 7.616 48.206 7.73 49.458 C 6.842 49.13 5.519 48.446 4.191 48.247 C 3.556 48.73 2.962 49.254 2.794 50.203 C 4.225 50.612 6.279 50.867 6.426 52.252 C 5.222 52.047 4.126 50.96 2.514 50.855 C 2.371 51.364 2.432 52.076 2.421 52.718 C 3.104 54.234 4.617 55.008 6.24 55.791 C 7.662 56.478 9.078 57.538 10.431 58.586 C 11.688 59.558 13.133 60.418 14.53 61.38 C 16.486 62.726 18.204 63.846 20.771 63.988 C 24.855 64.214 28.584 63.881 32.041 63.15 C 32.431 60.165 32.279 56.156 31.575 53.65 C 30.683 53.904 28.925 54.58 28.222 54.115 C 28.685 53.12 30.656 53.632 31.388 52.904 C 31.169 52.69 31.09 52.333 30.923 52.066 C 27.656 53.239 24.644 54.666 20.957 55.419 C 20.623 55.349 20.562 55.007 20.305 54.86 Z  M 35.021 48.713 C 34.776 48.841 34.668 49.105 34.369 49.179 C 33.242 48.678 31.671 49.249 30.364 49.179 C 30.939 50.404 31.609 51.535 32.134 52.811 C 35.447 52.088 38.211 50.816 40.89 49.458 C 39.353 48.484 37.338 48.312 35.021 48.713 Z  M 57.468 88.298 C 57.428 95.015 57.63 102.294 57.841 109.069 C 60.454 109.106 62.94 109.014 65.292 108.79 C 65.674 107.868 64.968 106.144 65.572 105.623 C 66.402 106.036 65.899 107.78 66.037 108.883 C 66.543 108.954 66.759 108.735 67.248 108.79 C 67.73 108.03 66.99 106.048 67.807 105.623 C 68.49 106.193 68.084 107.8 67.993 108.697 C 68.414 107.781 69.019 106.373 68.831 105.343 C 68.576 103.946 66.456 103.753 66.037 102.549 C 66.698 96.38 67.722 90.076 68.086 83.921 C 65.396 86.229 61.276 87.107 57.468 88.298 Z  M 44.987 103.574 C 44.112 104.129 42.03 105.498 41.914 106.367 C 41.819 107.074 42.401 107.876 42.659 108.603 C 42.489 107.863 42.479 106.185 43.218 106.367 C 43.453 107.245 43.08 108.222 43.404 109.069 C 43.794 109.3 44.45 109.264 45.08 109.254 C 44.776 108.334 44.506 106.335 45.732 106.181 C 45.75 106.948 45.217 108.545 45.918 109.254 C 48.598 109.327 50.886 109.006 53.276 108.789 C 53.5 102.182 53.142 94.993 53.742 88.763 C 50.151 89.057 46.335 88.785 43.683 87.832 C 43.307 93.539 43.872 99.054 44.987 103.574 Z " fill="rgb(6,20,29)"/><path d=" M 49.179 16.207 C 47.255 16.146 45.592 16.345 43.963 16.579 C 43.23 14.662 42.662 12.751 41.914 10.618 C 41.689 9.977 41.262 9.263 41.262 8.662 C 41.262 7.358 42.452 5.582 43.218 4.378 C 43.942 3.239 44.956 1.59 46.105 1.118 C 47.953 0.358 50.888 0.834 52.532 1.863 C 52.992 2.888 53.408 4.019 53.743 5.216 C 54.067 6.375 54.624 7.77 54.395 9.035 C 54.228 9.963 52.491 11.902 51.881 12.761 C 50.939 14.083 49.994 15.246 49.179 16.207 Z " fill="rgb(126,72,36)"/><path d=" M 37.35 18.628 C 35.858 19.006 34.834 20.564 33.345 20.677 C 32.279 20.758 30.192 19.677 29.246 19.28 C 28.494 18.964 26.225 18.091 25.614 17.417 C 24.977 16.715 24.672 15.01 24.403 13.878 C 24.041 12.352 23.565 10.768 23.938 9.407 C 24.464 7.484 27.107 5.793 29.06 5.122 C 30.234 5.45 31.201 5.984 32.227 6.52 C 33.149 7.001 34.398 7.395 35.114 8.196 C 36.066 9.262 36.298 11.341 36.605 13.039 C 36.932 14.849 37.235 16.754 37.35 18.628 Z " fill="rgb(126,72,36)"/><path d=" M 47.782 16.952 C 47.912 16.798 48.676 16.798 48.806 16.952 C 48.465 16.952 48.123 16.952 47.782 16.952 Z " fill="rgb(126,72,36)"/><path d=" M 48.341 35.114 C 47.614 34.134 47.164 32.875 47.223 31.11 C 46.873 30.836 46.528 31.553 46.198 31.11 C 46.32 29.701 46.639 28.543 47.129 27.29 C 47.502 26.338 48.109 24.712 48.805 24.217 C 49.796 23.512 52.19 23.302 53.555 23.379 C 56.061 23.52 56.786 25.24 57.933 27.011 C 58.703 28.201 59.45 29.35 59.702 30.644 C 59.486 30.614 59.345 30.659 59.238 30.737 C 59.209 30.61 59.004 30.659 58.865 30.644 C 58.865 30.923 58.865 31.202 58.865 31.482 C 58.544 34.918 56.563 36.694 53.276 37.163 C 52.935 37.163 52.593 37.163 52.252 37.163 C 50.983 37.065 50.11 36.572 49.271 36.046 C 49.001 35.696 48.69 35.386 48.341 35.114 Z  M 55.233 24.496 C 53.259 23.942 50.542 24.255 49.086 25.055 C 48.286 26.678 47.606 28.419 47.036 30.271 C 49.774 28.445 55.428 28.737 58.679 29.618 C 57.656 27.786 56.474 26.112 55.233 24.496 Z  M 53.463 36.325 C 56.495 35.885 58.326 33.834 58.028 30.364 C 57.012 30.014 55.718 29.941 54.582 29.712 C 55.777 30.999 55.481 33.957 53.371 33.997 C 53.06 33.997 52.749 33.997 52.439 33.997 C 50.47 34.022 49.587 31.507 50.67 29.898 C 49.672 30.049 48.705 30.231 48.061 30.737 C 47.812 33.836 49.397 35.84 52.066 36.325 C 52.318 36.48 53.211 36.48 53.463 36.325 Z " fill="rgb(6,20,29)"/><path d=" M 36.698 40.796 C 34.385 40.531 33.189 39.151 32.414 37.35 C 31.932 37.334 31.983 37.851 31.482 37.815 C 31.087 35.839 30.758 31.781 31.668 29.992 C 32.301 28.747 35.823 26.869 37.629 27.011 C 38.509 27.08 39.524 27.794 40.237 28.221 C 41.086 28.731 41.798 29.367 42.473 29.805 C 42.744 30.154 43.055 30.465 43.404 30.736 C 43.545 31.029 43.818 31.191 43.869 31.574 C 43.712 31.882 43.299 31.936 42.939 32.04 C 44.699 36.278 42.519 40.657 38.188 40.796 C 37.691 40.796 37.194 40.796 36.698 40.796 Z  M 31.948 35.58 C 31.948 35.89 31.948 36.201 31.948 36.511 C 34.358 33.985 38.261 32.144 42.659 31.296 C 42.3 30.548 41.312 30.046 40.423 29.433 C 39.605 28.867 38.573 27.984 37.629 27.849 C 35.443 27.536 33.857 29.3 32.414 30.271 C 32.258 31.481 31.979 32.568 32.041 33.997 C 31.825 34.34 32.008 35.082 31.948 35.58 Z  M 39.306 32.972 C 41.238 34.871 39.524 38.673 36.791 37.815 C 35.748 37.487 35.105 36.227 35.021 34.928 C 34.438 35.557 33.234 35.674 33.065 36.511 C 32.74 38.129 35.025 39.859 36.698 40.051 C 41.896 40.645 44.409 35.703 41.913 32.134 C 41.032 32.401 40.132 32.649 39.306 32.972 Z " fill="rgb(6,20,29)"/><path d=" M 59.238 30.737 C 58.681 30.553 59.159 31.402 58.866 31.482 C 58.866 31.202 58.866 30.923 58.866 30.644 C 59.005 30.659 59.209 30.611 59.238 30.737 Z " fill="rgb(126,72,36)"/><path d=" M 32.041 33.997 C 31.98 34.495 32.163 35.237 31.948 35.58 C 32.008 35.082 31.825 34.34 32.041 33.997 Z " fill="rgb(126,72,36)"/><path d=" M 52.439 33.997 C 52.749 33.997 53.06 33.997 53.37 33.997 C 53.27 34.151 52.539 34.151 52.439 33.997 Z " fill="rgb(70,110,76)"/><path d=" M 27.011 34.835 C 27.011 35.332 27.011 35.828 27.011 36.325 C 26.856 36.043 26.856 35.118 27.011 34.835 Z " fill="rgb(126,72,36)"/><path d=" M 52.066 36.325 C 52.532 36.325 52.997 36.325 53.463 36.325 C 53.211 36.48 52.318 36.48 52.066 36.325 Z " fill="rgb(70,110,76)"/><path d=" M 52.253 37.163 C 52.594 37.163 52.936 37.163 53.277 37.163 C 53.146 37.318 52.383 37.318 52.253 37.163 Z " fill="rgb(126,72,36)"/><path d=" M 66.41 40.423 C 67.07 41.316 67.812 42.126 68.273 43.217 C 66.603 44.002 66.748 41.57 66.41 40.423 Z " fill="rgb(126,72,36)"/><path d=" M 36.698 40.796 C 37.194 40.796 37.692 40.796 38.188 40.796 C 37.905 40.951 36.981 40.951 36.698 40.796 Z " fill="rgb(126,72,36)"/><path d=" M 85.318 71.346 C 84.87 70.428 84.897 69.035 83.827 68.738 C 83.65 69.862 84.918 70.993 84.572 72.278 C 84.333 73.172 83.236 73.264 82.151 73.488 C 82.391 71.979 82.107 70.262 81.126 69.669 C 80.495 70.498 82.137 71.77 81.499 73.209 C 79.315 72.997 78.632 70.931 77.494 69.297 C 76.611 68.027 75.483 66.963 75.073 65.851 C 74.737 64.942 74.662 63.826 74.421 62.87 C 72.773 56.34 69.745 50.473 67.621 44.427 C 67.713 43.929 68.314 43.941 68.646 43.682 C 68.708 43.682 68.77 43.682 68.832 43.682 C 73.082 49.68 77.499 56.037 82.151 62.125 C 83.981 64.52 86.646 67.307 85.318 71.346 Z " fill="rgb(126,72,36)"/><path d=" M 46.385 47.688 C 45.921 47.158 45.825 46.261 45.732 45.36 C 46.374 44.491 49.401 43.205 50.669 44.149 C 51.093 44.465 51.534 45.555 51.321 46.384 C 51.042 47.466 47.88 48.456 46.385 47.688 Z " fill="rgb(6,20,29)"/><path d=" M 9.314 45.174 C 8.237 45.032 6.625 44.242 5.216 44.894 C 5.079 43.889 6.525 43.88 7.358 43.963 C 8.299 44.056 9.509 44.56 9.314 45.174 Z " fill="rgb(6,20,29)"/><path d=" M 57.096 45.36 C 57.81 45.36 58.524 45.36 59.238 45.36 C 58.739 45.515 57.594 45.515 57.096 45.36 Z " fill="rgb(126,72,36)"/><path d=" M 35.207 45.919 C 35.83 45.98 36.697 45.796 37.163 46.012 C 36.542 45.951 35.675 46.135 35.207 45.919 Z " fill="rgb(126,72,36)"/><path d=" M 37.257 46.012 C 37.6 45.796 38.342 45.98 38.84 45.919 C 38.497 46.134 37.755 45.951 37.257 46.012 Z " fill="rgb(126,72,36)"/><path d=" M 20.957 55.419 C 24.644 54.666 27.657 53.239 30.923 52.066 C 31.091 52.333 31.169 52.689 31.389 52.904 C 30.657 53.631 28.685 53.12 28.222 54.115 C 28.925 54.58 30.683 53.903 31.576 53.649 C 32.279 56.156 32.431 60.165 32.041 63.149 C 28.584 63.881 24.855 64.214 20.771 63.987 C 18.205 63.845 16.486 62.726 14.531 61.379 C 13.133 60.417 11.689 59.558 10.432 58.585 C 9.078 57.538 7.662 56.477 6.24 55.791 C 4.618 55.008 3.104 54.234 2.422 52.717 C 2.432 52.076 2.372 51.364 2.515 50.854 C 4.127 50.959 5.223 52.046 6.427 52.252 C 6.28 50.867 4.226 50.611 2.794 50.203 C 2.962 49.253 3.556 48.729 4.191 48.247 C 5.519 48.445 6.842 49.13 7.731 49.458 C 7.617 48.205 6.242 48.215 5.309 47.782 C 8.978 46.729 11.456 49.588 13.785 51.228 C 15.955 52.755 18.064 53.792 20.305 54.86 C 20.562 55.007 20.623 55.349 20.957 55.419 Z " fill="rgb(126,72,36)"/><path d=" M 36.232 47.502 C 36.515 47.56 37.034 47.383 37.163 47.595 C 36.88 47.537 36.361 47.715 36.232 47.502 Z " fill="rgb(126,72,36)"/><path d=" M 46.105 50.017 C 46.447 50.017 46.789 50.017 47.13 50.017 C 46.999 50.171 46.236 50.171 46.105 50.017 Z " fill="rgb(126,72,36)"/><path d=" M 0 55.792 C 0 55.512 0 55.233 0 54.954 C 0.065 54.881 0.52 54.747 0.559 54.954 C 0.875 56.161 1.705 56.982 2.608 57.468 C 3.28 57.831 4.265 57.847 4.657 58.399 C 3.878 59.008 2.671 58.472 2.049 58.119 C 1.134 57.603 0.381 56.585 0 55.792 Z " fill="rgb(6,20,29)"/><path d=" M 32.879 57.096 C 33.095 57.47 32.912 58.243 32.972 58.772 C 32.756 58.398 32.94 57.625 32.879 57.096 Z " fill="rgb(126,72,36)"/><path d=" M 0.186 58.213 C 1.097 58.638 1.875 59.194 2.794 59.611 C 2.404 60.379 -0.076 59.473 0.186 58.213 Z " fill="rgb(6,20,29)"/><path d=" M 32.972 61.287 C 33.189 61.877 33.004 62.87 33.065 63.616 C 32.849 63.025 33.033 62.033 32.972 61.287 Z " fill="rgb(126,72,36)"/><path d=" M 33.065 65.199 C 33.279 65.389 33.099 65.972 33.158 66.317 C 32.945 66.127 33.125 65.543 33.065 65.199 Z " fill="rgb(126,72,36)"/><path d=" M 74.42 68.273 C 74.575 68.895 74.575 70.165 74.42 70.787 C 74.42 69.949 74.42 69.111 74.42 68.273 Z " fill="rgb(126,72,36)"/><path d=" M 68.086 83.92 C 67.722 90.076 66.699 96.38 66.037 102.549 C 66.456 103.753 68.577 103.946 68.831 105.343 C 69.019 106.371 68.414 107.779 67.993 108.696 C 68.084 107.799 68.49 106.192 67.807 105.622 C 66.991 106.048 67.73 108.029 67.248 108.789 C 66.759 108.734 66.543 108.953 66.038 108.882 C 65.9 107.778 66.402 106.034 65.572 105.622 C 64.969 106.143 65.675 107.867 65.293 108.789 C 62.94 109.013 60.454 109.104 57.841 109.069 C 57.631 102.293 57.429 95.014 57.469 88.298 C 61.276 87.107 65.396 86.229 68.086 83.92 Z " fill="rgb(126,72,36)"/><path d=" M 43.684 87.832 C 46.336 88.786 50.152 89.058 53.743 88.764 C 53.143 94.994 53.5 102.182 53.277 108.789 C 50.887 109.007 48.599 109.328 45.919 109.255 C 45.217 108.545 45.751 106.948 45.733 106.181 C 44.506 106.335 44.777 108.334 45.081 109.255 C 44.451 109.264 43.795 109.299 43.404 109.069 C 43.081 108.223 43.455 107.245 43.218 106.368 C 42.48 106.185 42.49 107.863 42.66 108.604 C 42.402 107.876 41.82 107.075 41.914 106.368 C 42.032 105.499 44.113 104.129 44.988 103.574 C 43.872 99.054 43.307 93.539 43.684 87.832 Z " fill="rgb(126,72,36)"/><path d=" M 48.806 88.019 C 50.079 88.019 51.353 88.019 52.626 88.019 C 51.569 88.174 49.862 88.174 48.806 88.019 Z " fill="rgb(126,72,36)"/><path d=" M 30.83 23.844 C 31.163 23.433 31.535 23.06 31.948 22.727 C 31.614 23.138 31.241 23.511 30.83 23.844 Z " fill="rgb(126,72,36)"/><path d=" M 48.341 35.114 C 48.69 35.386 49 35.696 49.271 36.046 C 48.923 35.774 48.612 35.464 48.341 35.114 Z " fill="rgb(126,72,36)"/><path d=" M 58.679 29.619 C 55.428 28.738 49.774 28.446 47.036 30.271 C 47.607 28.42 48.287 26.679 49.086 25.055 C 50.542 24.256 53.259 23.943 55.233 24.497 C 56.474 26.112 57.656 27.786 58.679 29.619 Z " fill="rgb(238,127,12)"/><path d=" M 42.472 29.805 C 42.821 30.077 43.132 30.387 43.403 30.737 C 43.054 30.465 42.744 30.155 42.472 29.805 Z " fill="rgb(126,72,36)"/><path d=" M 64.454 35.207 C 65.091 36.402 65.054 38.271 65.479 39.679 C 63.585 41.138 61.142 42.048 58.586 42.845 C 58.397 42.614 58.842 42.35 59.052 42.1 C 59.652 41.387 60.452 40.347 61.38 39.958 C 61.915 40.075 61.828 40.813 62.591 40.703 C 62.948 39.91 61.864 39.754 61.66 39.213 C 61.61 38.739 62.088 38.3 61.66 38.002 C 62.567 37.046 63.688 36.305 64.454 35.207 Z " fill="rgb(238,127,12)"/><path d=" M 53.463 48.62 C 53.922 48.084 54.418 47.588 54.954 47.13 C 54.495 47.665 53.999 48.162 53.463 48.62 Z " fill="rgb(126,72,36)"/><path d=" M 38.282 83.175 C 38.755 83.572 39.19 84.006 39.585 84.479 C 39.112 84.083 38.677 83.649 38.282 83.175 Z " fill="rgb(126,72,36)"/><path d=" M 69.111 82.337 C 69.444 81.925 69.817 81.553 70.229 81.219 C 69.895 81.631 69.523 82.004 69.111 82.337 Z " fill="rgb(126,72,36)"/><path d=" M 54.954 47.13 C 55.259 46.689 55.616 46.301 55.978 45.919 C 60.123 46.322 63.938 45.632 66.783 44.428 C 69.476 52.23 73.767 58.432 74.421 68.273 C 74.421 69.111 74.421 69.949 74.421 70.787 C 74.17 75.41 72.431 78.547 70.229 81.219 C 69.818 81.552 69.445 81.925 69.111 82.337 C 64.883 85.498 59.659 87.663 52.626 88.019 C 51.353 88.019 50.079 88.019 48.806 88.019 C 44.658 87.914 41.894 86.424 39.585 84.48 C 39.189 84.006 38.755 83.571 38.282 83.176 C 34.813 79.317 33.331 73.472 33.159 66.317 C 33.1 65.973 33.28 65.39 33.066 65.2 C 33.066 64.672 33.066 64.144 33.066 63.616 C 33.005 62.87 33.189 61.878 32.973 61.288 C 32.973 60.45 32.973 59.612 32.973 58.773 C 32.913 58.245 33.095 57.472 32.88 57.097 C 32.817 55.825 32.662 54.645 32.508 53.465 C 35.844 52.548 38.874 51.325 41.636 49.833 C 45.151 51.397 51.14 50.896 53.464 48.622 C 53.999 48.162 54.495 47.665 54.954 47.13 Z " fill="rgb(238,127,12)"/><path d=" M 53.37 33.997 C 55.481 33.957 55.776 30.999 54.581 29.712 C 55.718 29.941 57.011 30.014 58.027 30.364 C 58.326 33.834 56.495 35.885 53.463 36.325 C 52.998 36.325 52.532 36.325 52.066 36.325 C 49.396 35.84 47.811 33.836 48.061 30.737 C 48.705 30.232 49.67 30.049 50.669 29.899 C 49.586 31.507 50.469 34.023 52.439 33.997 C 52.539 34.151 53.27 34.151 53.37 33.997 Z " fill="rgb(255,255,255)"/><path d=" M 41.914 32.134 C 44.409 35.703 41.896 40.645 36.698 40.051 C 35.025 39.859 32.74 38.129 33.066 36.511 C 33.234 35.674 34.439 35.557 35.022 34.928 C 35.106 36.228 35.748 37.488 36.792 37.815 C 39.525 38.673 41.24 34.871 39.306 32.972 C 40.132 32.649 41.032 32.401 41.914 32.134 Z " fill="rgb(255,255,255)"/><path d=" M 31.948 22.727 C 36.177 19.753 40.88 17.253 47.782 16.952 C 48.123 16.952 48.465 16.952 48.806 16.952 C 57.098 17.768 60.879 23.612 63.243 30.457 C 63.611 31.524 64.479 33.58 64.361 34.276 C 64.259 34.881 62.629 36.249 62.032 36.791 C 59.438 39.147 56.483 40.901 53.556 42.752 C 54.189 43.22 55.041 42.507 55.605 42.193 C 57.519 41.127 59.488 39.604 61.194 38.374 C 60.944 39.876 59.265 40.702 58.307 41.82 C 57.891 42.304 57.502 43.09 57.003 43.311 C 56.087 43.716 55.054 43.479 53.929 43.776 C 54.339 44.879 55.829 43.922 56.723 43.87 C 56.488 44.504 55.962 44.847 55.512 45.267 C 55.05 45.263 54.428 45.028 54.115 45.174 C 53.994 45.852 54.686 45.72 55.046 45.919 C 53.466 48.343 51.032 49.916 47.13 50.017 C 46.788 50.017 46.446 50.017 46.104 50.017 C 44.797 50.052 43.74 49.835 42.751 49.552 C 42.838 48.943 43.875 48.936 43.589 48.248 C 42.881 48.008 42.708 48.901 42.006 48.993 C 41.127 49.108 40.397 48.415 39.677 48.062 C 40.609 47.534 42.434 47.9 42.751 46.758 C 41.21 46.593 39.227 47.969 37.163 47.596 C 37.034 47.384 36.515 47.561 36.232 47.503 C 35.015 47.819 35.426 46.508 34.742 46.292 C 34.004 46.667 35.058 47.444 34.649 48.062 C 33.306 48.396 31.705 48.471 29.992 48.435 C 29.495 47.379 28.989 46.333 28.688 45.082 C 30.61 45.612 32.866 45.809 35.208 45.919 C 35.675 46.136 36.542 45.952 37.163 46.013 C 37.194 46.013 37.226 46.013 37.257 46.013 C 37.755 45.952 38.497 46.135 38.84 45.919 C 40.151 45.709 41.739 45.776 42.472 44.988 C 38.2 45.415 32.088 45.527 28.408 44.243 C 27.668 41.879 27.001 39.441 27.011 36.326 C 27.011 35.83 27.011 35.333 27.011 34.836 C 27.077 29.965 28.573 26.526 30.83 23.845 C 31.241 23.511 31.614 23.138 31.948 22.727 Z  M 59.238 30.737 C 59.346 30.658 59.488 30.614 59.703 30.644 C 59.451 29.35 58.704 28.201 57.934 27.011 C 56.786 25.24 56.061 23.52 53.556 23.379 C 52.19 23.302 49.796 23.512 48.806 24.217 C 48.109 24.712 47.503 26.338 47.13 27.29 C 46.639 28.543 46.321 29.701 46.199 31.11 C 46.529 31.553 46.873 30.836 47.223 31.11 C 47.165 32.876 47.615 34.134 48.342 35.114 C 48.613 35.464 48.923 35.774 49.272 36.046 C 50.112 36.572 50.985 37.065 52.253 37.163 C 52.384 37.317 53.148 37.317 53.278 37.163 C 56.566 36.694 58.546 34.918 58.867 31.482 C 59.159 31.403 58.682 30.553 59.238 30.737 Z  M 42.472 29.805 C 41.798 29.367 41.086 28.731 40.237 28.222 C 39.524 27.794 38.509 27.08 37.628 27.011 C 35.823 26.869 32.3 28.748 31.668 29.992 C 30.756 31.781 31.087 35.839 31.482 37.815 C 31.983 37.851 31.932 37.335 32.413 37.35 C 33.188 39.152 34.385 40.532 36.698 40.796 C 36.981 40.951 37.905 40.951 38.188 40.796 C 42.518 40.658 44.699 36.279 42.938 32.041 C 43.3 31.937 43.712 31.883 43.869 31.575 C 43.818 31.192 43.545 31.03 43.403 30.737 C 43.133 30.387 42.822 30.077 42.472 29.805 Z  M 51.321 46.384 C 51.534 45.555 51.093 44.465 50.669 44.149 C 49.401 43.205 46.375 44.491 45.732 45.36 C 45.824 46.261 45.92 47.158 46.384 47.688 C 47.88 48.456 51.042 47.466 51.321 46.384 Z " fill="rgb(238,127,12)"/><path d=" M 32.041 33.997 C 31.978 32.568 32.258 31.481 32.414 30.271 C 33.857 29.3 35.443 27.536 37.629 27.849 C 38.574 27.984 39.605 28.868 40.423 29.433 C 41.312 30.046 42.3 30.548 42.658 31.296 C 38.26 32.145 34.357 33.985 31.947 36.511 C 31.947 36.201 31.947 35.89 31.947 35.58 C 32.163 35.237 31.98 34.495 32.041 33.997 Z " fill="rgb(238,127,12)"/><path d=" M 57.096 45.36 C 56.941 45.36 56.785 45.36 56.63 45.36 C 56.498 44.967 57.543 44.17 57.841 43.59 C 60.872 42.988 63.341 41.825 65.572 40.423 C 66.073 41.381 66.217 42.696 66.689 43.683 C 64.684 44.72 62.215 45.294 59.239 45.359 C 58.524 45.36 57.81 45.36 57.096 45.36 Z " fill="rgb(238,127,12)"/><path d=" M 40.889 49.458 C 38.211 50.816 35.447 52.087 32.133 52.812 C 31.608 51.536 30.939 50.404 30.363 49.179 C 31.67 49.249 33.241 48.678 34.368 49.179 C 34.667 49.106 34.775 48.841 35.02 48.713 C 37.338 48.312 39.353 48.484 40.889 49.458 Z " fill="rgb(238,127,12)"/></g></svg>