<?xml version="1.0" standalone="no"?><!-- Generator: Gravit.io --><svg xmlns="http://www.w3.org/2000/svg" xmlns:xlink="http://www.w3.org/1999/xlink" style="isolation:isolate" viewBox="0 0 84.197 110" width="84.197" height="110"><defs><clipPath id="_clipPath_ph7SimHFjtTQFniCz9v0rEsooGfRQrMl"><rect width="84.197" height="110"/></clipPath></defs><g clip-path="url(#_clipPath_ph7SimHFjtTQFniCz9v0rEsooGfRQrMl)"><path d=" M 44.612 0 L 47.778 0 C 50.793 0.236 51.42 1.807 52.343 4.564 C 52.924 6.303 53.164 7.797 52.995 9.594 C 51.353 11.834 49.613 13.974 48.058 16.3 C 56.897 18.017 60.356 25.113 62.775 33.251 C 63.262 33.216 63.54 31.756 64.265 31.948 C 64.512 33.088 63.374 33.586 63.054 34.462 C 63.429 35.919 63.627 37.553 63.985 39.026 C 65.3 38.369 66.699 37.166 67.804 35.953 C 68.162 35.559 68.365 34.848 69.015 34.835 C 69.023 35.998 67.986 36.825 67.245 37.536 C 66.46 38.29 65.504 38.922 64.73 39.585 C 65.221 40.802 66.077 41.653 66.778 42.659 C 67.26 42.56 67.612 41.907 68.176 42.193 C 68.265 42.934 67.596 42.916 67.338 43.311 C 71.634 49.532 75.753 55.56 80.378 61.473 C 81.884 63.399 83.774 65.298 84.197 67.994 L 84.197 70.415 C 83.866 73.461 80.579 75.305 77.77 73.768 C 75.555 72.556 74.757 69.188 73.02 67.714 C 73.206 75.227 70.633 79.98 66.779 83.455 C 66.256 87.782 65.797 92.773 65.289 97.612 C 65.119 99.238 64.557 101.065 64.824 102.269 C 65.062 103.35 66.758 103.598 67.152 104.598 C 67.593 105.715 66.908 109.208 66.221 109.535 C 65.607 109.827 62.845 109.688 61.657 109.721 C 59.932 109.768 58.086 109.666 56.72 109.721 C 56.018 109.749 55.436 109.984 54.857 109.535 C 54.417 103.394 54.874 96.354 54.391 90.254 C 53.74 90.473 53.114 91.522 52.156 91.744 C 51.824 97.351 51.679 103.399 51.877 109.255 C 50.525 110.169 47.811 109.723 45.822 110 L 40.419 110 C 39.752 109.322 38.665 107.38 38.929 105.995 C 39.151 104.828 41.535 103.961 41.817 102.922 C 41.194 100.564 40.919 97.857 40.606 95.191 C 36.192 95.75 31.969 95.451 28.31 94.353 C 22.537 92.618 17.948 89.249 16.388 83.641 C 16.184 82.904 15.7 81.809 16.202 81.312 C 16.646 81.804 16.615 82.472 16.76 82.989 C 16.93 83.589 17.134 84.102 17.413 84.665 C 20.628 91.168 31.757 94.811 40.512 91.092 C 40.46 89.86 40.676 88.896 40.605 87.646 C 32.799 84.058 30.063 75.399 30.08 63.988 C 26.217 64.248 22.49 64.046 18.004 63.103 C 16.01 62.684 14.235 60.713 12.112 58.962 C 9.989 57.212 9.121 56.007 7.58 54.103 C 6.039 52.198 4.597 49.56 3.711 47.929 C 3.854 45.841 5.749 44.335 7.684 43.521 C 11.899 41.748 12.804 45.658 14.148 47.528 C 15.492 49.398 16.812 54.248 19.089 54.488 C 19.831 54.539 20.695 54.084 21.511 53.835 C 24.028 53.07 26.166 52.205 28.217 51.227 C 27.959 50.46 27.536 49.859 27.191 49.178 C 24.982 49.12 22.659 48.883 20.859 48.433 C 20.324 48.3 19.383 48.261 19.275 47.595 C 19.642 47.048 20.373 47.556 20.859 47.688 C 22.637 48.172 24.78 48.464 26.819 48.246 C 26.295 47.218 25.994 45.967 25.516 44.893 C 24.93 44.643 24.181 44.458 23.467 44.241 C 22.818 44.046 21.784 43.992 21.696 43.216 C 22.005 42.84 22.777 43.241 23.373 43.403 C 24.042 43.586 24.698 43.823 25.235 43.962 C 24.799 41.457 24.095 39.221 23.932 36.603 C 23.549 30.43 25.829 25.431 28.775 22.539 C 29.204 22.118 29.851 21.83 30.079 21.235 C 28.763 20.706 27.507 20.297 26.167 19.745 C 25.108 19.308 23.51 18.762 22.721 17.789 C 21.694 16.522 20.912 13.414 20.765 11.362 C 20.595 8.997 21.237 7.91 22.348 6.798 C 23.349 5.797 25.3 4.319 27.098 4.376 C 28.219 4.412 29.542 5.24 30.452 5.68 C 31.406 6.142 32.802 6.665 33.432 7.357 C 34.484 8.51 34.667 10.591 35.016 12.386 C 35.39 14.309 35.731 16.369 35.854 18.254 C 37.188 17.694 39.339 17.145 40.977 16.578 C 40.438 15.308 40.146 13.999 39.673 12.666 C 39.218 11.386 38.379 10.081 38.276 8.754 C 38.134 6.93 39.352 5.035 40.418 3.538 C 41.477 2.055 42.906 0.256 44.612 0 L 44.612 0 Z  M 49.641 12.76 C 50.252 11.902 51.989 9.962 52.156 9.035 C 52.384 7.768 51.828 6.375 51.504 5.216 C 51.169 4.019 50.752 2.887 50.293 1.862 C 48.65 0.833 45.714 0.357 43.865 1.117 C 42.716 1.59 41.703 3.238 40.979 4.377 C 40.212 5.581 39.023 7.357 39.023 8.661 C 39.023 9.262 39.45 9.976 39.675 10.617 C 40.424 12.751 40.992 14.662 41.724 16.578 C 43.353 16.344 45.016 16.145 46.94 16.206 C 47.756 15.246 48.701 14.083 49.641 12.76 Z  M 34.366 13.04 C 34.059 11.342 33.828 9.263 32.876 8.197 C 32.159 7.395 30.911 7.002 29.988 6.52 C 28.962 5.985 27.995 5.451 26.822 5.123 C 24.868 5.793 22.225 7.484 21.699 9.408 C 21.327 10.769 21.803 12.352 22.165 13.878 C 22.433 15.011 22.739 16.717 23.375 17.418 C 23.987 18.092 26.256 18.966 27.008 19.281 C 27.954 19.677 30.04 20.759 31.106 20.678 C 32.596 20.564 33.62 19.007 35.111 18.629 C 34.996 16.754 34.693 14.849 34.366 13.04 Z  M 45.543 16.952 C 38.642 17.253 33.94 19.753 29.709 22.727 C 29.297 23.06 28.925 23.433 28.591 23.844 C 26.335 26.525 24.838 29.964 24.772 34.835 C 24.618 35.118 24.618 36.042 24.772 36.325 C 24.762 39.44 25.429 41.878 26.17 44.242 C 29.849 45.526 35.961 45.413 40.234 44.987 C 39.499 45.775 37.912 45.708 36.601 45.918 C 36.104 45.979 35.361 45.796 35.018 46.011 L 34.925 46.011 C 34.458 45.795 33.591 45.979 32.969 45.918 C 30.628 45.808 28.371 45.611 26.449 45.08 C 26.75 46.332 27.257 47.378 27.753 48.434 C 29.466 48.47 31.068 48.395 32.41 48.061 C 32.82 47.443 31.765 46.665 32.503 46.291 C 33.187 46.508 32.777 47.818 33.993 47.502 C 34.123 47.714 34.642 47.537 34.924 47.595 C 36.988 47.968 38.973 46.592 40.513 46.757 C 40.197 47.899 38.37 47.533 37.439 48.061 C 38.159 48.414 38.889 49.107 39.767 48.992 C 40.471 48.9 40.642 48.007 41.351 48.246 C 41.636 48.935 40.599 48.942 40.513 49.55 C 41.502 49.834 42.558 50.051 43.866 50.016 C 43.997 50.17 44.761 50.17 44.891 50.016 C 48.794 49.914 51.228 48.342 52.807 45.918 C 52.447 45.719 51.756 45.851 51.877 45.172 C 52.19 45.026 52.811 45.262 53.274 45.266 C 53.724 44.846 54.25 44.503 54.485 43.868 C 53.59 43.921 52.099 44.878 51.69 43.775 C 52.815 43.478 53.849 43.714 54.764 43.31 C 55.264 43.089 55.653 42.303 56.068 41.819 C 57.028 40.701 58.706 39.875 58.955 38.373 C 57.249 39.603 55.28 41.126 53.367 42.192 C 52.803 42.506 51.95 43.219 51.318 42.751 C 54.244 40.899 57.2 39.145 59.794 36.79 C 60.391 36.248 62.021 34.879 62.122 34.275 C 62.24 33.579 61.373 31.523 61.004 30.456 C 58.641 23.611 54.86 17.767 46.568 16.951 C 46.437 16.797 45.673 16.797 45.543 16.952 L 45.543 16.952 Z  M 59.421 38.002 C 59.85 38.301 59.371 38.739 59.421 39.213 C 59.625 39.754 60.71 39.91 60.353 40.703 C 59.59 40.813 59.676 40.074 59.142 39.958 C 58.213 40.347 57.413 41.387 56.813 42.1 C 56.603 42.35 56.158 42.615 56.347 42.845 C 58.903 42.047 61.346 41.138 63.241 39.679 C 62.816 38.271 62.853 36.403 62.215 35.207 C 61.45 36.305 60.328 37.046 59.421 38.002 L 59.421 38.002 Z  M 57 45.36 C 59.976 45.294 62.445 44.72 64.45 43.683 C 63.978 42.696 63.834 41.381 63.333 40.424 C 61.102 41.825 58.633 42.988 55.602 43.59 C 55.303 44.17 54.26 44.968 54.391 45.36 L 54.857 45.36 C 55.355 45.515 56.501 45.515 57 45.36 L 57 45.36 Z  M 66.034 43.218 C 65.573 42.126 64.831 41.316 64.171 40.424 C 64.509 41.57 64.365 44.002 66.034 43.218 Z  M 79.913 62.125 C 75.261 56.037 70.843 49.682 66.593 43.683 L 66.407 43.683 C 66.076 43.942 65.475 43.931 65.383 44.428 C 67.507 50.473 70.534 56.341 72.182 62.87 C 72.423 63.827 72.498 64.943 72.834 65.851 C 73.245 66.964 74.372 68.028 75.256 69.298 C 76.394 70.932 77.076 72.998 79.26 73.21 C 79.899 71.771 78.256 70.498 78.888 69.67 C 79.868 70.262 80.152 71.979 79.913 73.489 C 80.997 73.265 82.094 73.173 82.334 72.279 C 82.68 70.993 81.411 69.862 81.589 68.739 C 82.659 69.036 82.632 70.429 83.079 71.347 C 84.407 67.307 81.742 64.52 79.913 62.125 L 79.913 62.125 Z  M 72.182 68.273 C 71.528 58.432 67.237 52.229 64.543 44.428 C 61.699 45.632 57.883 46.322 53.739 45.919 C 53.376 46.301 53.02 46.689 52.715 47.13 C 52.179 47.588 51.682 48.084 51.223 48.62 C 48.9 50.894 42.909 51.395 39.395 49.831 C 36.634 51.324 33.603 52.546 30.267 53.463 C 30.422 54.643 30.577 55.824 30.639 57.095 C 30.7 57.624 30.517 58.397 30.732 58.771 L 30.732 61.286 C 30.794 62.032 30.61 63.024 30.826 63.614 L 30.826 65.198 C 30.885 65.542 30.705 66.126 30.919 66.316 C 31.09 73.471 32.573 79.315 36.041 83.174 C 36.437 83.648 36.872 84.082 37.345 84.478 C 39.654 86.422 42.417 87.912 46.566 88.017 C 47.622 88.172 49.328 88.172 50.385 88.017 C 57.419 87.661 62.643 85.496 66.871 82.335 C 67.283 82.002 67.655 81.629 67.989 81.217 C 70.191 78.545 71.929 75.408 72.18 70.785 C 72.337 70.165 72.337 68.895 72.182 68.273 L 72.182 68.273 Z  M 18.066 54.86 C 15.825 53.792 15.186 51.352 13.484 48.221 C 11.69 46.381 11.618 43.322 7.949 44.374 C 8.881 44.808 9.388 45.667 9.502 46.918 C 8.613 46.59 8.493 44.904 7.165 44.705 C 6.53 45.188 6.204 44.642 6.036 45.592 C 7.2 46.735 7.048 46.59 7.863 47.507 C 6.659 47.302 6.139 47.275 4.527 47.17 C 4.384 47.68 6.274 51.712 8.135 52.918 C 9.997 54.125 14.125 59.339 14.698 59.776 C 16.653 61.123 17.503 61.908 20.069 62.05 C 24.153 62.276 26.345 63.881 29.803 63.15 C 30.192 60.165 30.04 56.156 29.337 53.65 C 28.445 53.904 26.687 54.58 25.983 54.115 C 26.446 53.12 28.418 53.632 29.15 52.904 C 28.93 52.69 28.852 52.333 28.684 52.066 C 25.418 53.239 22.405 54.666 18.718 55.419 C 18.385 55.349 18.324 55.007 18.066 54.86 Z  M 32.783 48.713 C 32.537 48.841 32.429 49.105 32.131 49.179 C 31.003 48.678 29.433 49.249 28.126 49.179 C 28.701 50.404 29.371 51.535 29.895 52.811 C 33.208 52.088 35.973 50.816 38.651 49.458 C 37.114 48.484 35.1 48.312 32.783 48.713 Z  M 55.23 88.298 C 55.189 95.015 55.392 102.294 55.602 109.069 C 58.215 109.106 60.701 109.014 63.054 108.79 C 63.435 107.868 62.73 106.144 63.333 105.623 C 64.163 106.036 63.661 107.78 63.799 108.883 C 64.304 108.954 64.521 108.735 65.01 108.79 C 65.492 108.03 64.752 106.048 65.568 105.623 C 66.251 106.193 65.846 107.8 65.754 108.697 C 66.175 107.781 66.78 106.373 66.593 105.343 C 66.338 103.946 64.217 103.753 63.798 102.549 C 64.46 96.38 65.483 90.076 65.847 83.921 C 63.157 86.229 59.038 87.107 55.23 88.298 Z  M 42.749 103.574 C 41.873 104.129 39.792 105.498 39.675 106.367 C 39.58 107.074 40.163 107.876 40.42 108.603 C 40.251 107.863 40.241 106.185 40.979 106.367 C 41.215 107.245 40.842 108.222 41.165 109.069 C 41.556 109.3 42.212 109.264 42.842 109.254 C 42.537 108.334 42.267 106.335 43.494 106.181 C 43.512 106.948 42.978 108.545 43.68 109.254 C 46.36 109.327 48.648 109.006 51.038 108.789 C 51.261 102.182 50.903 94.993 51.504 88.763 C 47.913 89.057 44.097 88.785 41.444 87.832 C 41.069 93.539 41.633 99.054 42.749 103.574 Z " fill="rgb(6,20,29)"/><path d=" M 46.941 16.207 C 45.017 16.146 43.353 16.345 41.725 16.579 C 40.992 14.662 40.424 12.751 39.675 10.618 C 39.45 9.977 39.024 9.263 39.024 8.662 C 39.024 7.358 40.213 5.582 40.979 4.378 C 41.704 3.239 42.717 1.59 43.866 1.118 C 45.715 0.358 48.65 0.834 50.294 1.863 C 50.754 2.888 51.17 4.019 51.504 5.216 C 51.829 6.375 52.385 7.77 52.156 9.035 C 51.989 9.963 50.253 11.902 49.642 12.761 C 48.701 14.083 47.756 15.246 46.941 16.207 Z " fill="rgb(126,72,36)"/><path d=" M 35.111 18.628 C 33.619 19.006 32.596 20.564 31.106 20.677 C 30.04 20.758 27.954 19.677 27.008 19.28 C 26.256 18.964 23.987 18.091 23.375 17.417 C 22.739 16.715 22.433 15.01 22.165 13.878 C 21.802 12.352 21.327 10.768 21.699 9.407 C 22.225 7.484 24.868 5.793 26.822 5.122 C 27.995 5.45 28.962 5.984 29.988 6.52 C 30.911 7.001 32.16 7.395 32.876 8.196 C 33.828 9.262 34.059 11.341 34.366 13.039 C 34.693 14.849 34.996 16.754 35.111 18.628 Z " fill="rgb(126,72,36)"/><path d=" M 45.543 16.952 C 45.673 16.798 46.437 16.798 46.568 16.952 C 46.226 16.952 45.885 16.952 45.543 16.952 Z " fill="rgb(126,72,36)"/><path d=" M 46.102 35.114 C 45.375 34.134 44.926 32.875 44.984 31.11 C 44.634 30.836 44.29 31.553 43.959 31.11 C 44.081 29.701 44.4 28.543 44.891 27.29 C 45.264 26.338 45.87 24.712 46.566 24.217 C 47.558 23.512 49.952 23.302 51.317 23.379 C 53.822 23.52 54.547 25.24 55.694 27.011 C 56.464 28.201 57.211 29.35 57.464 30.644 C 57.248 30.614 57.107 30.659 56.999 30.737 C 56.97 30.61 56.765 30.659 56.626 30.644 C 56.626 30.923 56.626 31.202 56.626 31.482 C 56.306 34.918 54.325 36.694 51.038 37.163 C 50.696 37.163 50.355 37.163 50.013 37.163 C 48.745 37.065 47.872 36.572 47.032 36.046 C 46.762 35.696 46.452 35.386 46.102 35.114 Z  M 52.994 24.496 C 51.021 23.942 48.303 24.255 46.847 25.055 C 46.048 26.678 45.368 28.419 44.798 30.271 C 47.535 28.445 53.189 28.737 56.441 29.618 C 55.417 27.786 54.235 26.112 52.994 24.496 Z  M 51.225 36.325 C 54.257 35.885 56.087 33.834 55.789 30.364 C 54.773 30.014 53.48 29.941 52.343 29.712 C 53.538 30.999 53.242 33.957 51.132 33.997 C 50.822 33.997 50.511 33.997 50.201 33.997 C 48.231 34.022 47.348 31.507 48.431 29.898 C 47.433 30.049 46.467 30.231 45.822 30.737 C 45.573 33.836 47.158 35.84 49.828 36.325 C 50.08 36.48 50.972 36.48 51.225 36.325 Z " fill="rgb(6,20,29)"/><path d=" M 34.46 40.796 C 32.147 40.531 30.95 39.151 30.175 37.35 C 29.694 37.334 29.745 37.851 29.244 37.815 C 28.849 35.839 28.519 31.781 29.43 29.992 C 30.063 28.747 33.585 26.869 35.39 27.011 C 36.27 27.08 37.286 27.794 37.999 28.221 C 38.848 28.731 39.559 29.367 40.234 29.805 C 40.506 30.154 40.816 30.465 41.165 30.736 C 41.307 31.029 41.58 31.191 41.631 31.574 C 41.474 31.882 41.061 31.936 40.7 32.04 C 42.461 36.278 40.28 40.657 35.95 40.796 C 35.453 40.796 34.956 40.796 34.46 40.796 Z  M 29.709 35.58 C 29.709 35.89 29.709 36.201 29.709 36.511 C 32.119 33.985 36.022 32.144 40.42 31.296 C 40.062 30.548 39.074 30.046 38.185 29.433 C 37.366 28.867 36.335 27.984 35.391 27.849 C 33.204 27.536 31.618 29.3 30.175 30.271 C 30.019 31.481 29.74 32.568 29.803 33.997 C 29.587 34.34 29.77 35.082 29.709 35.58 Z  M 37.067 32.972 C 38.999 34.871 37.285 38.673 34.552 37.815 C 33.509 37.487 32.866 36.227 32.783 34.928 C 32.199 35.557 30.995 35.674 30.827 36.511 C 30.501 38.129 32.787 39.859 34.459 40.051 C 39.657 40.645 42.17 35.703 39.674 32.134 C 38.793 32.401 37.893 32.649 37.067 32.972 Z " fill="rgb(6,20,29)"/><path d=" M 57 30.737 C 56.443 30.553 56.92 31.402 56.627 31.482 C 56.627 31.202 56.627 30.923 56.627 30.644 C 56.766 30.659 56.971 30.611 57 30.737 Z " fill="rgb(126,72,36)"/><path d=" M 29.803 33.997 C 29.742 34.495 29.924 35.237 29.709 35.58 C 29.77 35.082 29.587 34.34 29.803 33.997 Z " fill="rgb(126,72,36)"/><path d=" M 50.2 33.997 C 50.511 33.997 50.822 33.997 51.132 33.997 C 51.031 34.151 50.301 34.151 50.2 33.997 Z " fill="rgb(70,110,76)"/><path d=" M 24.772 34.835 C 24.772 35.332 24.772 35.828 24.772 36.325 C 24.618 36.043 24.618 35.118 24.772 34.835 Z " fill="rgb(126,72,36)"/><path d=" M 49.828 36.325 C 50.293 36.325 50.759 36.325 51.225 36.325 C 50.972 36.48 50.08 36.48 49.828 36.325 Z " fill="rgb(70,110,76)"/><path d=" M 50.014 37.163 C 50.356 37.163 50.697 37.163 51.039 37.163 C 50.908 37.318 50.145 37.318 50.014 37.163 Z " fill="rgb(126,72,36)"/><path d=" M 64.171 40.423 C 64.831 41.316 65.573 42.126 66.034 43.217 C 64.365 44.002 64.509 41.57 64.171 40.423 Z " fill="rgb(126,72,36)"/><path d=" M 34.46 40.796 C 34.956 40.796 35.453 40.796 35.95 40.796 C 35.667 40.951 34.742 40.951 34.46 40.796 Z " fill="rgb(126,72,36)"/><path d=" M 83.079 71.346 C 82.632 70.428 82.659 69.035 81.589 68.738 C 81.411 69.862 82.68 70.993 82.334 72.278 C 82.094 73.172 80.997 73.264 79.913 73.488 C 80.152 71.979 79.868 70.262 78.888 69.669 C 78.256 70.498 79.898 71.77 79.26 73.209 C 77.076 72.997 76.393 70.931 75.256 69.297 C 74.372 68.027 73.244 66.963 72.834 65.851 C 72.499 64.942 72.423 63.826 72.182 62.87 C 70.534 56.34 67.507 50.473 65.383 44.427 C 65.474 43.929 66.076 43.941 66.407 43.682 C 66.469 43.682 66.531 43.682 66.593 43.682 C 70.843 49.68 75.261 56.037 79.913 62.125 C 81.742 64.52 84.407 67.307 83.079 71.346 Z " fill="rgb(126,72,36)"/><path d=" M 44.146 47.688 C 43.683 47.158 43.586 46.261 43.494 45.36 C 44.136 44.491 47.163 43.205 48.431 44.149 C 48.855 44.465 49.296 45.555 49.083 46.384 C 48.804 47.466 45.641 48.456 44.146 47.688 Z " fill="rgb(6,20,29)"/><path d=" M 15.547 40.876 C 14.487 40.604 12.901 39.427 11.114 40.141 C 11.647 38.684 12.803 38.868 13.623 39.027 C 14.549 39.205 15.739 39.701 15.547 40.876 L 15.547 40.876 Z " fill="rgb(6,20,29)"/><path d=" M 54.857 45.36 C 55.571 45.36 56.285 45.36 57 45.36 C 56.501 45.515 55.355 45.515 54.857 45.36 Z " fill="rgb(126,72,36)"/><path d=" M 32.969 45.919 C 33.591 45.98 34.458 45.796 34.925 46.012 C 34.303 45.951 33.436 46.135 32.969 45.919 Z " fill="rgb(126,72,36)"/><path d=" M 35.018 46.012 C 35.361 45.796 36.104 45.98 36.601 45.919 C 36.258 46.134 35.516 45.951 35.018 46.012 Z " fill="rgb(126,72,36)"/><path d=" M 18.718 55.419 C 22.405 54.666 25.418 53.239 28.685 52.066 C 28.853 52.333 28.93 52.689 29.15 52.904 C 28.418 53.631 26.447 53.12 25.984 54.115 C 26.687 54.58 28.445 53.903 29.337 53.649 C 30.041 56.156 30.193 60.165 29.803 63.149 C 26.345 63.881 24.956 63.345 20.872 63.119 C 18.305 62.977 16.386 61.59 14.431 60.243 C 13.033 59.281 12.926 58.823 11.668 57.85 C 10.315 56.803 8.811 54.379 7.678 53.051 C 6.544 51.723 5.076 49.489 4.393 47.972 C 4.404 47.331 5.012 46.752 5.155 46.243 C 6.767 46.348 6.659 47.301 7.863 47.507 C 6.915 46.39 6.999 46.668 6.036 45.592 C 6.203 44.642 6.53 45.188 7.165 44.705 C 8.493 44.904 8.614 46.59 9.502 46.918 C 8.92 45.532 8.881 44.807 7.949 44.374 C 11.618 43.322 12.025 45.846 13.351 47.886 C 15.32 51.085 15.825 53.792 18.067 54.86 C 18.324 55.007 18.385 55.349 18.718 55.419 L 18.718 55.419 Z " fill="rgb(126,72,36)"/><path d=" M 33.993 47.502 C 34.276 47.56 34.795 47.383 34.924 47.595 C 34.642 47.537 34.123 47.715 33.993 47.502 Z " fill="rgb(126,72,36)"/><path d=" M 43.866 50.017 C 44.208 50.017 44.55 50.017 44.892 50.017 C 44.761 50.171 43.997 50.171 43.866 50.017 Z " fill="rgb(126,72,36)"/><path d=" M 0.635 50.564 C 0.635 50.284 0.635 50.005 0.635 49.726 C 0.7 49.653 1.155 49.519 1.194 49.726 C 1.51 50.933 2.34 51.754 3.243 52.24 C 3.915 52.603 4.901 52.619 5.292 53.171 C 4.513 53.78 3.306 53.244 2.684 52.892 C 1.769 52.375 1.016 51.357 0.635 50.564 L 0.635 50.564 Z " fill="rgb(6,20,29)"/><path d=" M 30.64 57.096 C 30.856 57.47 30.673 58.243 30.733 58.772 C 30.518 58.398 30.701 57.625 30.64 57.096 Z " fill="rgb(126,72,36)"/><path d=" M 0.019 52.451 C 0.93 52.875 1.708 53.432 2.627 53.848 C 2.237 54.617 -0.243 53.71 0.019 52.451 Z " fill="rgb(6,20,29)"/><path d=" M 30.734 61.287 C 30.95 61.877 30.765 62.87 30.827 63.616 C 30.611 63.025 30.795 62.033 30.734 61.287 Z " fill="rgb(126,72,36)"/><path d=" M 30.827 65.199 C 31.041 65.389 30.86 65.972 30.92 66.317 C 30.706 66.127 30.886 65.543 30.827 65.199 Z " fill="rgb(126,72,36)"/><path d=" M 72.182 68.273 C 72.336 68.895 72.336 70.165 72.182 70.787 C 72.182 69.949 72.182 69.111 72.182 68.273 Z " fill="rgb(126,72,36)"/><path d=" M 65.848 83.92 C 65.483 90.076 64.46 96.38 63.799 102.549 C 64.217 103.753 66.338 103.946 66.593 105.343 C 66.78 106.371 66.175 107.779 65.755 108.696 C 65.846 107.799 66.251 106.192 65.569 105.622 C 64.752 106.048 65.492 108.029 65.01 108.789 C 64.521 108.734 64.305 108.953 63.799 108.882 C 63.661 107.778 64.163 106.034 63.333 105.622 C 62.73 106.143 63.437 107.867 63.054 108.789 C 60.701 109.013 58.216 109.104 55.603 109.069 C 55.392 102.293 55.19 95.014 55.23 88.298 C 59.038 87.107 63.157 86.229 65.848 83.92 Z " fill="rgb(126,72,36)"/><path d=" M 41.445 87.832 C 44.097 88.786 47.913 89.058 51.504 88.764 C 50.904 94.994 51.262 102.182 51.039 108.789 C 48.649 109.007 46.361 109.328 43.681 109.255 C 42.979 108.545 43.512 106.948 43.494 106.181 C 42.268 106.335 42.538 108.334 42.842 109.255 C 42.212 109.264 41.557 109.299 41.166 109.069 C 40.843 108.223 41.216 107.245 40.98 106.368 C 40.241 106.185 40.251 107.863 40.421 108.604 C 40.164 107.876 39.581 107.075 39.676 106.368 C 39.793 105.499 41.874 104.129 42.75 103.574 C 41.633 99.054 41.069 93.539 41.445 87.832 Z " fill="rgb(126,72,36)"/><path d=" M 46.568 88.019 C 47.841 88.019 49.114 88.019 50.387 88.019 C 49.33 88.174 47.624 88.174 46.568 88.019 Z " fill="rgb(126,72,36)"/><path d=" M 28.591 23.844 C 28.924 23.433 29.297 23.06 29.709 22.727 C 29.376 23.138 29.003 23.511 28.591 23.844 Z " fill="rgb(126,72,36)"/><path d=" M 46.102 35.114 C 46.451 35.386 46.762 35.696 47.033 36.046 C 46.684 35.774 46.374 35.464 46.102 35.114 Z " fill="rgb(126,72,36)"/><path d=" M 56.441 29.619 C 53.189 28.738 47.535 28.446 44.798 30.271 C 45.368 28.42 46.049 26.679 46.847 25.055 C 48.303 24.256 51.021 23.943 52.994 24.497 C 54.235 26.112 55.417 27.786 56.441 29.619 Z " fill="rgb(238,127,12)"/><path d=" M 40.234 29.805 C 40.583 30.077 40.894 30.387 41.165 30.737 C 40.816 30.465 40.506 30.155 40.234 29.805 Z " fill="rgb(126,72,36)"/><path d=" M 62.215 35.207 C 62.853 36.402 62.816 38.271 63.241 39.679 C 61.346 41.138 58.903 42.048 56.347 42.845 C 56.158 42.614 56.603 42.35 56.813 42.1 C 57.413 41.387 58.213 40.347 59.142 39.958 C 59.676 40.075 59.59 40.813 60.353 40.703 C 60.71 39.91 59.625 39.754 59.421 39.213 C 59.371 38.739 59.85 38.3 59.421 38.002 C 60.328 37.046 61.45 36.305 62.215 35.207 Z " fill="rgb(238,127,12)"/><path d=" M 51.225 48.62 C 51.683 48.084 52.18 47.588 52.716 47.13 C 52.257 47.665 51.761 48.162 51.225 48.62 Z " fill="rgb(126,72,36)"/><path d=" M 36.043 83.175 C 36.516 83.572 36.951 84.006 37.346 84.479 C 36.873 84.083 36.438 83.649 36.043 83.175 Z " fill="rgb(126,72,36)"/><path d=" M 66.872 82.337 C 67.206 81.925 67.579 81.553 67.99 81.219 C 67.657 81.631 67.284 82.004 66.872 82.337 Z " fill="rgb(126,72,36)"/><path d=" M 52.715 47.13 C 53.02 46.689 53.377 46.301 53.74 45.919 C 57.884 46.322 61.7 45.632 64.544 44.428 C 67.237 52.23 71.529 58.432 72.183 68.273 C 72.183 69.111 72.183 69.949 72.183 70.787 C 71.932 75.41 70.193 78.547 67.99 81.219 C 67.579 81.552 67.206 81.925 66.873 82.337 C 62.645 85.498 57.421 87.663 50.387 88.019 C 49.114 88.019 47.841 88.019 46.568 88.019 C 42.42 87.914 39.656 86.424 37.347 84.48 C 36.951 84.006 36.516 83.571 36.043 83.176 C 32.575 79.317 31.092 73.472 30.921 66.317 C 30.861 65.973 31.041 65.39 30.827 65.2 C 30.827 64.672 30.827 64.144 30.827 63.616 C 30.766 62.87 30.95 61.878 30.734 61.288 C 30.734 60.45 30.734 59.612 30.734 58.773 C 30.674 58.245 30.857 57.472 30.642 57.097 C 30.579 55.825 30.424 54.645 30.269 53.465 C 33.605 52.548 36.636 51.325 39.397 49.833 C 42.912 51.397 48.902 50.896 51.226 48.622 C 51.761 48.162 52.257 47.665 52.715 47.13 Z " fill="rgb(238,127,12)"/><path d=" M 51.132 33.997 C 53.242 33.957 53.538 30.999 52.343 29.712 C 53.479 29.941 54.773 30.014 55.789 30.364 C 56.087 33.834 54.257 35.885 51.224 36.325 C 50.759 36.325 50.294 36.325 49.827 36.325 C 47.158 35.84 45.573 33.836 45.822 30.737 C 46.466 30.232 47.432 30.049 48.431 29.899 C 47.348 31.507 48.23 34.023 50.2 33.997 C 50.301 34.151 51.031 34.151 51.132 33.997 Z " fill="rgb(255,255,255)"/><path d=" M 39.675 32.134 C 42.171 35.703 39.657 40.645 34.46 40.051 C 32.787 39.859 30.502 38.129 30.827 36.511 C 30.996 35.674 32.2 35.557 32.783 34.928 C 32.867 36.228 33.51 37.488 34.553 37.815 C 37.286 38.673 39.001 34.871 37.068 32.972 C 37.893 32.649 38.793 32.401 39.675 32.134 Z " fill="rgb(255,255,255)"/><path d=" M 29.709 22.727 C 33.938 19.753 38.642 17.253 45.543 16.952 C 45.885 16.952 46.226 16.952 46.568 16.952 C 54.86 17.768 58.641 23.612 61.004 30.457 C 61.373 31.524 62.24 33.58 62.122 34.276 C 62.021 34.881 60.391 36.249 59.794 36.791 C 57.2 39.147 54.244 40.901 51.318 42.752 C 51.95 43.22 52.803 42.507 53.367 42.193 C 55.281 41.127 57.249 39.604 58.955 38.374 C 58.705 39.876 57.027 40.702 56.068 41.82 C 55.653 42.304 55.264 43.09 54.764 43.311 C 53.849 43.716 52.815 43.479 51.69 43.776 C 52.1 44.879 53.59 43.922 54.485 43.87 C 54.25 44.504 53.724 44.847 53.274 45.267 C 52.812 45.263 52.19 45.028 51.877 45.174 C 51.756 45.852 52.448 45.72 52.807 45.919 C 51.228 48.343 48.794 49.916 44.891 50.017 C 44.55 50.017 44.208 50.017 43.866 50.017 C 42.559 50.052 41.502 49.835 40.513 49.552 C 40.6 48.943 41.637 48.936 41.351 48.248 C 40.642 48.008 40.47 48.901 39.767 48.993 C 38.889 49.108 38.158 48.415 37.439 48.062 C 38.37 47.534 40.196 47.9 40.513 46.758 C 38.972 46.593 36.988 47.969 34.924 47.596 C 34.795 47.384 34.276 47.561 33.993 47.503 C 32.777 47.819 33.187 46.508 32.503 46.292 C 31.765 46.667 32.819 47.444 32.41 48.062 C 31.068 48.396 29.466 48.471 27.753 48.435 C 27.257 47.379 26.75 46.333 26.449 45.082 C 28.371 45.612 30.628 45.809 32.969 45.919 C 33.436 46.136 34.304 45.952 34.925 46.013 C 34.956 46.013 34.987 46.013 35.018 46.013 C 35.516 45.952 36.258 46.135 36.601 45.919 C 37.912 45.709 39.5 45.776 40.234 44.988 C 35.961 45.415 29.849 45.527 26.17 44.243 C 25.43 41.879 24.762 39.441 24.772 36.326 C 24.772 35.83 24.772 35.333 24.772 34.836 C 24.838 29.965 26.335 26.526 28.591 23.845 C 29.003 23.511 29.376 23.138 29.709 22.727 Z  M 57 30.737 C 57.107 30.658 57.249 30.614 57.465 30.644 C 57.213 29.35 56.466 28.201 55.695 27.011 C 54.548 25.24 53.823 23.52 51.317 23.379 C 49.952 23.302 47.558 23.512 46.567 24.217 C 45.871 24.712 45.264 26.338 44.891 27.29 C 44.401 28.543 44.082 29.701 43.96 31.11 C 44.291 31.553 44.634 30.836 44.985 31.11 C 44.927 32.876 45.376 34.134 46.103 35.114 C 46.374 35.464 46.685 35.774 47.034 36.046 C 47.873 36.572 48.746 37.065 50.015 37.163 C 50.145 37.317 50.909 37.317 51.04 37.163 C 54.327 36.694 56.307 34.918 56.628 31.482 C 56.92 31.403 56.443 30.553 57 30.737 Z  M 40.234 29.805 C 39.559 29.367 38.848 28.731 37.998 28.222 C 37.285 27.794 36.27 27.08 35.39 27.011 C 33.584 26.869 30.062 28.748 29.429 29.992 C 28.518 31.781 28.849 35.839 29.243 37.815 C 29.744 37.851 29.693 37.335 30.175 37.35 C 30.95 39.152 32.146 40.532 34.459 40.796 C 34.742 40.951 35.666 40.951 35.949 40.796 C 40.28 40.658 42.46 36.279 40.7 32.041 C 41.061 31.937 41.473 31.883 41.63 31.575 C 41.579 31.192 41.306 31.03 41.165 30.737 C 40.894 30.387 40.584 30.077 40.234 29.805 Z  M 49.082 46.384 C 49.296 45.555 48.855 44.465 48.43 44.149 C 47.163 43.205 44.136 44.491 43.493 45.36 C 43.585 46.261 43.682 47.158 44.146 47.688 C 45.641 48.456 48.804 47.466 49.082 46.384 Z " fill="rgb(238,127,12)"/><path d=" M 29.803 33.997 C 29.74 32.568 30.019 31.481 30.175 30.271 C 31.619 29.3 33.204 27.536 35.39 27.849 C 36.335 27.984 37.366 28.868 38.184 29.433 C 39.074 30.046 40.061 30.548 40.42 31.296 C 36.022 32.145 32.119 33.985 29.709 36.511 C 29.709 36.201 29.709 35.89 29.709 35.58 C 29.924 35.237 29.741 34.495 29.803 33.997 Z " fill="rgb(238,127,12)"/><path d=" M 54.857 45.36 C 54.703 45.36 54.547 45.36 54.391 45.36 C 54.26 44.967 55.304 44.17 55.602 43.59 C 58.634 42.988 61.103 41.825 63.333 40.423 C 63.835 41.381 63.979 42.696 64.451 43.683 C 62.445 44.72 59.977 45.294 57 45.359 C 56.285 45.36 55.571 45.36 54.857 45.36 Z " fill="rgb(238,127,12)"/><path d=" M 38.651 49.458 C 35.973 50.816 33.208 52.087 29.894 52.812 C 29.37 51.536 28.701 50.404 28.125 49.179 C 29.432 49.249 31.002 48.678 32.13 49.179 C 32.429 49.106 32.537 48.841 32.782 48.713 C 35.1 48.312 37.114 48.484 38.651 49.458 Z " fill="rgb(238,127,12)"/></g></svg>