<?xml version="1.0" standalone="no"?><!-- Generator: Gravit.io --><svg xmlns="http://www.w3.org/2000/svg" xmlns:xlink="http://www.w3.org/1999/xlink" style="isolation:isolate" viewBox="0 0 316.004 94.981" width="316.004" height="94.981"><defs><clipPath id="_clipPath_rNycERzzrsuMbHo31jCbAtVQ7qeF8T0Y"><rect width="316.004" height="94.981"/></clipPath></defs><g clip-path="url(#_clipPath_rNycERzzrsuMbHo31jCbAtVQ7qeF8T0Y)"><g id="layer4"><path d=" M 7.846 3.933 L 0 90.262 L 38.959 91.835 L 39.23 88.492 L 45.723 92.031 L 70.884 93.015 L 72.508 87.902 L 75.213 92.621 L 110.926 93.211 L 114.714 3.146 L 60.062 0 L 58.169 13.175 L 48.699 0.393 L 7.846 3.933 Z " fill="rgb(255,255,255)"/><path d=" M 173.964 88.295 L 181.54 91.638 L 206.972 93.605 L 211.842 91.638 L 217.253 94.195 L 241.602 93.801 L 241.602 29.891 L 203.184 31.857 L 201.02 37.363 L 193.715 32.054 L 156.92 33.824 L 173.964 88.295 Z " fill="rgb(255,255,255)"/><path d=" M 238.356 89.082 L 249.989 93.211 L 268.928 94.981 L 294.63 93.801 L 306.264 84.952 L 315.192 74.726 L 314.381 55.258 L 308.158 52.702 L 316.004 46.606 L 313.028 35.593 L 290.572 24.974 L 258.376 23.205 L 228.345 27.924 L 238.356 89.082 Z " fill="rgb(255,255,255)"/><line x1="105.592" y1="68.546" x2="106.504" y2="87.138" vector-effect="non-scaling-stroke" stroke-width="1" stroke="rgb(0,0,0)" stroke-linejoin="miter" stroke-linecap="butt" stroke-miterlimit="4"/><path d=" M 106.504 87.138 L 113.451 90.337 L 124.883 92.481 L 142.744 93.195 L 146.674 92.123 L 153.461 94.624 L 172.395 92.123 L 178.468 88.194 L 164.893 35.68 L 153.104 29.964 L 123.811 29.607 L 107.378 37.109 L 106.504 87.138 Z " fill="rgb(255,255,255)"/></g><g id="layer3"><g id="#050101ff-7"><path d=" M 250.84 32.356 C 258.524 30.638 266.683 30.888 274.61 31.284 C 279.306 32.07 284.607 31.807 288.636 33.935 C 291.675 35.638 295.903 37.496 297.105 40.241 C 298.488 42.09 298.751 47.387 299.356 49.413 C 293.635 48.843 282.559 49.336 277.035 49.458 C 275.944 47.814 273.939 45.35 273.343 43.581 C 268.314 41.926 263.139 42.91 258.026 43.613 C 258.006 45.536 258.57 47.188 258.55 49.118 C 265.871 49.669 271.47 49.208 278.62 50.639 C 280.296 50.815 282.768 51.218 284.393 51.592 C 290.539 53.365 298.337 55.766 300.991 59.189 C 302.641 61.082 302.179 73.58 301.59 74.74 C 301.095 75.745 300.55 77.988 300.035 78.993 C 294.965 85.687 284.593 89.076 274.556 89.267 C 269.668 89.106 264.851 89.7 260.085 88.702 C 257.722 88.526 253.134 88.071 250.872 87.572 C 247.469 86.405 244.831 85.86 242.347 83.724 C 239.711 81.897 237.07 79.321 235.868 76.898 C 235.586 75.115 234.579 70.814 234.609 69.023 C 242.497 70.677 252.056 70.412 259.854 70.3 C 260.39 71.636 259.626 73.675 259.888 75.062 C 260.111 75.524 263.404 75.19 263.616 75.645 C 266.797 75.653 266.716 75.675 269.897 75.572 C 273.138 74.625 275.142 75.005 278.454 74.293 C 279.221 72.451 280.986 71.337 278.724 69.958 C 271.837 70.075 265.998 69.693 259.212 68.929 C 255.07 67.499 247.165 65.988 244.138 64.894 C 234.111 60.483 232.034 50.72 235.235 43.285 C 236.931 38.874 240.733 34.349 246.822 33.468 M 246.095 36.206 C 240.814 38.239 237.966 42.665 237.825 46.885 C 237.663 50.68 237.451 54.724 240.157 58.122 C 242.974 62.071 248.882 64.089 254.506 65.271 C 263.685 67.032 273.218 67.502 282.669 67.84 C 282.639 70.607 282.397 73.374 282.185 76.133 C 278.701 76.552 275.338 77.374 271.885 77.88 C 267.624 78.262 263.312 77.968 259.04 78.086 C 258.253 76.17 257.616 74.225 257.011 72.28 C 250.709 72.273 244.418 71.568 238.117 71.972 C 239.016 74.93 239.794 78.093 242.793 80.368 C 248.952 85.506 259 86.394 267.815 86.724 C 277.661 86.651 288.86 85.264 295.352 79.319 C 302.482 72.28 301.482 59.913 289.738 55.795 C 279.024 51.935 266.684 51.678 254.971 51.333 C 254.749 48.492 254.769 45.637 254.87 42.79 C 261.817 41.623 268.876 40.815 276.025 41.344 C 276.611 43.245 277.398 45.101 278.449 46.892 C 284.113 45.879 289.91 46.892 295.635 46.547 C 294.161 43.428 292.737 40.074 289.072 37.916 C 282.7 33.894 273.743 33.703 265.745 33.549 C 259.091 33.696 252.063 33.776 246.095 36.206 L 246.095 36.206 Z " fill="rgb(5,1,1)"/><path d=" M 121.007 36.164 C 125.541 34.608 132.302 33.692 137.3 33.941 C 141.433 34.188 153.994 35.503 156.183 36.466 C 160.438 38.383 162.361 40.049 163.896 42.957 C 165.987 47.713 166.497 54.226 166.194 59.07 C 164.497 67.217 168.659 76.681 170.548 84.578 C 163.923 84.358 154.67 83.896 148.49 85.863 C 146.864 84.535 145.987 84.471 144.674 83.003 C 135.417 86.221 125.497 87.064 116.283 85.498 C 109.479 84.552 106.692 78.577 106.289 74.702 C 105.865 69.961 105.144 65.08 108.497 60.999 C 109.799 59.326 113.824 57.757 116.167 57.104 C 125.319 55.388 136.045 53.967 143.929 53.046 C 143.949 51.196 144.15 50.737 144.12 48.888 C 139.636 48.726 135.509 47.629 131.783 47.256 C 129.077 48.848 131.257 51.894 130.782 54.089 C 126.339 54.089 121.272 53.566 116.829 53.837 C 114.204 53.955 109.545 53.912 106.919 53.971 C 107.039 51.071 107.79 46.984 109.372 44.486 C 111.25 41.822 112.86 39.854 116.203 38.174 M 117.79 40.441 C 113.176 42.863 110.106 46.812 110.368 50.995 C 116.215 51.003 122.122 50.621 127.908 51.421 C 128.05 49.498 128.12 47.575 128.09 45.645 C 134.401 44.133 140.985 46.232 147.074 47.45 C 147.286 50.019 147.276 52.603 147.175 55.179 C 136.875 56.148 126.384 56.823 116.528 59.362 C 112.509 60.317 110.712 63.362 109.449 66.034 C 107.581 70.431 106.743 75.583 110.227 79.686 C 114.206 84.207 122.587 85.168 129.342 84.156 C 135.765 83.576 141.389 81.139 146.519 78.409 C 147.488 80.06 148.498 81.704 149.508 83.356 C 155.193 82.798 160.909 81.256 166.674 82.277 C 165.453 75.796 161.898 69.535 162.373 62.893 C 161.979 56.654 164.614 50.181 161.393 44.147 C 159.172 39.7 152.972 37.087 146.812 36.36 C 136.936 35.399 126.01 35.949 117.79 40.441 L 117.79 40.441 Z " fill="rgb(5,1,1)"/><path d=" M 231.201 38.382 C 222.397 40.428 214.905 39.762 206.68 39.733 C 209.814 49.656 207.043 62.032 206.687 69.466 C 200.706 71.273 198.882 70.398 195.154 70.136 C 194.475 59.337 195.772 50.777 195.772 40.293 C 182.33 41.159 179.502 40.855 168.324 38.793 C 170.6 50.656 167.372 66.107 170.807 77.56 C 172.414 81.164 177.206 84.36 181.087 85.614 C 188.67 87.816 197.747 88.21 204.967 85.421 C 207.603 84.445 210.37 83.506 212.43 81.935 C 212.895 82.706 214.728 84.01 215.253 84.759 C 222.916 85.284 227.724 83.78 234.285 86.003 C 230.718 70.798 236.288 52.328 231.201 38.382 L 231.201 38.382 Z  M 229.686 41.219 C 229.554 55.208 230.291 69.198 230.079 83.187 C 225.464 82.203 220.648 81.807 215.871 81.476 C 215.346 80.148 214.893 78.812 214.519 77.462 C 208.905 81.697 201.341 85.073 192.99 84.838 C 186.012 85.117 178.155 83.121 174.974 78.277 C 170.521 71.451 173.188 63.708 173.148 56.478 C 172.4 51.597 172.379 46.679 171.43 41.806 C 178.186 42.349 184.82 43.648 191.657 43.67 C 193.293 49.248 191.566 54.959 191.586 60.589 C 191.222 64.919 191.758 69.278 190.91 73.579 C 197.292 73.88 203.654 73.293 209.793 71.98 C 211.52 62.115 211.196 52.133 211.559 42.21 C 217.628 42.137 223.627 41.402 229.686 41.219 L 229.686 41.219 Z " fill="rgb(5,1,1)"/><path d=" M 129.322 65.021 C 133.755 63.972 138.35 63.208 143.035 63.15 C 143.126 66.79 143.217 70.438 142.924 74.071 C 137.613 74.181 132.341 74.695 127.06 75.032 C 126.939 72.17 126.212 69.344 126.212 66.482 C 126.777 65.579 128.161 65.337 129.322 65.021 Z  M 130.076 66.913 C 128.38 68.946 130.016 70.769 129.571 73.096 C 133.986 72.309 137.05 74.312 140.171 72.148 C 140.424 69.484 139.628 68.342 139.698 65.678 C 135.376 65.935 134.176 65.966 130.076 66.913 L 130.076 66.913 Z " fill="rgb(5,1,1)"/><path d=" M 105.451 9.713 C 102.589 36.615 104.457 61.533 106.504 87.138 C 98.456 87.101 86.008 87.146 77.97 87.058 C 80.151 72.322 80.271 54.129 80.067 42.629 C 73.304 58.415 73.862 68.903 68.336 84.422 C 61.075 84.371 49.979 84.927 42.718 84.979 C 38.156 71.744 38.296 54.336 33.067 41.689 C 32.734 57.066 34.517 71.191 34.396 86.574 C 26.994 86.596 15.968 86.018 8.566 86.026 C 11.898 60.543 13.269 32.535 13.696 9.213 C 26.412 9.842 39.075 8.723 48.999 8.244 C 53.999 21.504 52.739 37.638 59.463 49.596 C 65.215 33.986 65.448 22.062 67.399 6.526 M 71.744 8.836 C 69.037 25.006 64.493 40.969 60.808 57.036 C 60.333 58.166 60.596 59.876 58.364 60.082 C 53.466 44.448 49.559 28.661 45.832 12.866 C 36.401 12.565 26.98 12.249 17.578 11.625 C 16.488 16.044 17.094 20.55 16.71 24.998 C 15.72 32.044 16.104 39.149 15.498 46.217 C 14.599 52.199 15.175 58.254 14.095 64.229 C 13.711 67.451 13.792 70.695 13.206 73.91 C 12.56 77.22 13.186 80.625 11.994 83.884 C 18.315 84.413 24.637 84.317 30.968 83.943 C 30.665 68.625 30.544 53.3 30.696 37.975 C 30.706 35.443 29.989 32.852 31.231 30.4 C 31.645 30.738 32.463 31.413 32.877 31.751 C 37.229 48.375 41.803 64.977 46.256 81.594 C 52.547 81.631 58.828 81.609 65.119 81.587 C 67.553 74.878 69.674 68.119 71.986 61.388 C 62.677 44.955 76.948 38.732 80.721 27.883 C 83.195 27.853 82.427 29.688 82.73 30.745 C 83.023 37.336 82.761 43.934 82.862 50.533 C 83.134 53.659 83.366 56.794 82.882 59.92 C 82.367 67.935 82.286 75.965 82.357 83.987 C 89.072 84.258 95.797 84.537 102.492 83.811 C 101.27 78.578 102.058 73.249 101.29 67.986 C 100.452 56.515 100.513 45.006 100.493 33.512 C 99.725 26.305 99.947 19.068 100.089 11.846 C 90.657 10.767 81.155 10.018 71.744 8.836 L 71.744 8.836 Z " fill="rgb(5,1,1)"/></g><g id="#fe6601ff-6"><path d=" M 71.744 8.836 C 81.155 10.018 90.657 10.767 100.089 11.846 C 99.947 19.068 99.725 26.305 100.493 33.512 C 100.513 45.006 100.452 56.515 101.29 67.986 C 102.058 73.249 101.27 78.578 102.492 83.811 C 95.797 84.537 89.072 84.258 82.357 83.987 C 82.286 75.965 82.367 67.935 82.882 59.92 C 83.366 56.794 83.134 53.659 82.862 50.533 C 82.761 43.934 83.023 37.336 82.73 30.745 C 82.427 29.688 83.195 27.853 80.721 27.883 C 77.651 39.032 75.096 50.247 71.986 61.388 C 69.674 68.119 67.553 74.878 65.119 81.587 C 58.828 81.609 52.547 81.631 46.256 81.594 C 41.803 64.977 37.229 48.375 32.877 31.751 C 32.463 31.413 31.645 30.738 31.231 30.4 C 29.989 32.852 30.706 35.443 30.696 37.975 C 30.544 53.3 30.665 68.625 30.968 83.943 C 24.637 84.317 18.315 84.413 11.994 83.884 C 13.186 80.625 12.56 77.22 13.206 73.91 C 13.792 70.695 13.711 67.451 14.095 64.229 C 15.175 58.254 14.599 52.199 15.498 46.217 C 16.104 39.149 15.72 32.044 16.71 24.998 C 17.094 20.55 16.488 16.044 17.578 11.625 C 26.98 12.249 36.401 12.565 45.832 12.866 C 49.559 28.661 53.466 44.448 58.364 60.082 C 60.596 59.876 60.333 58.166 60.808 57.036 C 64.493 40.969 69.037 25.006 71.744 8.836 Z " fill="rgb(254,102,1)"/><path d=" M 246.095 36.206 C 252.063 33.776 259.091 33.696 265.745 33.549 C 273.743 33.703 282.7 33.894 289.072 37.916 C 292.737 40.074 294.161 43.428 295.635 46.547 C 289.91 46.892 284.113 45.879 278.449 46.892 C 277.398 45.101 276.611 43.245 276.025 41.344 C 268.876 40.815 261.817 41.623 254.87 42.79 C 254.769 45.637 254.749 48.492 254.971 51.333 C 266.684 51.678 279.024 51.935 289.738 55.795 C 301.482 59.913 302.482 72.28 295.352 79.319 C 288.86 85.264 277.661 86.651 267.815 86.724 C 259 86.394 248.952 85.506 242.793 80.368 C 239.794 78.093 239.016 74.93 238.117 71.972 C 244.418 71.568 250.709 72.273 257.011 72.28 C 257.616 74.225 258.253 76.17 259.04 78.086 C 263.312 77.968 267.624 78.262 271.885 77.88 C 275.338 77.374 278.701 76.552 282.185 76.133 C 282.397 73.374 282.639 70.607 282.669 67.84 C 273.218 67.502 263.685 67.032 254.506 65.271 C 248.882 64.089 242.974 62.071 240.157 58.122 C 237.451 54.724 237.663 50.68 237.825 46.885 C 237.966 42.665 240.814 38.239 246.095 36.206 L 246.095 36.206 Z " fill="rgb(254,102,1)"/><path d=" M 117.79 40.441 C 126.01 35.949 136.936 35.399 146.812 36.36 C 152.972 37.087 159.172 39.7 161.393 44.147 C 164.614 50.181 161.979 56.654 162.373 62.893 C 161.898 69.535 165.453 75.796 166.674 82.277 C 160.909 81.256 155.193 82.798 149.508 83.356 C 148.498 81.704 147.488 80.06 146.519 78.409 C 141.389 81.139 135.765 83.576 129.342 84.156 C 122.587 85.168 114.206 84.207 110.227 79.686 C 106.743 75.583 107.581 70.431 109.449 66.034 C 110.712 63.362 112.509 60.317 116.528 59.362 C 126.384 56.823 136.875 56.148 147.175 55.179 C 147.276 52.603 147.286 50.019 147.074 47.45 C 140.985 46.232 134.401 44.133 128.09 45.645 C 128.12 47.575 128.05 49.498 127.908 51.421 C 122.122 50.621 116.215 51.003 110.368 50.995 C 110.106 46.812 113.176 42.863 117.79 40.441 M 129.322 65.021 C 128.161 65.337 126.777 65.579 126.212 66.482 C 126.212 69.344 126.939 72.17 127.06 75.032 C 132.341 74.695 137.613 74.181 142.924 74.071 C 143.217 70.438 143.126 66.79 143.035 63.15 C 138.35 63.208 133.755 63.972 129.322 65.021 Z " fill="rgb(254,102,1)"/><path d=" M 171.431 41.806 C 178.186 42.349 184.82 43.648 191.657 43.67 C 193.293 49.248 191.566 54.959 191.586 60.588 C 191.223 64.918 191.758 69.278 190.909 73.579 C 197.291 73.88 203.653 73.293 209.793 71.979 C 211.519 62.115 211.196 52.133 211.56 42.21 C 217.629 42.136 223.627 41.402 229.686 41.219 C 229.554 55.208 230.291 69.197 230.079 83.187 C 225.465 82.203 220.648 81.807 215.872 81.477 C 215.347 80.148 214.892 78.812 214.518 77.462 C 208.904 81.697 201.341 85.073 192.99 84.838 C 186.012 85.117 178.156 83.121 174.975 78.277 C 170.522 71.451 173.188 63.707 173.147 56.478 C 172.4 51.597 172.38 46.68 171.431 41.806 L 171.431 41.806 Z " fill="rgb(254,102,1)"/></g></g></g></svg>